<svg xmlns="http://www.w3.org/2000/svg" width="101" height="101" fill="none" xmlns:v="https://vecta.io/nano"><style><![CDATA[.B{fill:#964b00}.C{fill:#3b8adf}.D{fill:#ab6f33}.E{fill:#29619c}]]></style><path d="M76.928 27.754C70.435 20.201 62.764 16.09 50.962 16.09S31.488 20.201 25 27.754c-6.632 7.712-7.445 14.998-7.445 22.746 0 13.094 26.769 9.966 26.769 9.966l6.637-7.054 6.637 7.054s26.769 3.128 26.769-9.966c.005-7.748-.813-15.034-7.44-22.746z" class="C"/><path d="M11.628 55.974v-1.873s.695-.026.839-1.564l5.85 4.6-1.641 17.694-2.351 1.986s.196-1.636-1.168-1.425l-.926-10.326-.602-9.091z" class="E"/><path d="M10.99 54.385c-3.504 5.881-2.979 16.335 1.569 20.842.334.329.9.18 1.024-.273.525-1.934.962-4.425.962-7.388.01-6.539-1.538-11.01-2.475-13.12-.195-.448-.823-.484-1.08-.062z" class="C"/><path d="M16.428 73.226c-.036.072-1.168 4.214-1.168 4.214s1.888 1.94 1.729 8.17v9.966h3.447l1.25-22.345-4.347-3.298-.911 3.293z" class="D"/><path d="M20.436 68.096l-2.115 4.836s1.332 10.625 1.06 15.168l-.489 7.471h1.549l1.25-22.345-1.255-5.13z" class="B"/><path d="M19.114 48.977c-2.83 0-5.042 1.389-6.642 3.56.782 1.482 3.205 6.766 3.195 15.27-.005 3.745-.648 6.802-1.338 9.009 1.333 1.029 2.927 1.631 4.79 1.631 1.214 0 2.202-.988 2.202-2.202V51.179a2.21 2.21 0 0 0-2.207-2.202z" class="C"/><path d="M21.867 60.255s-3.313-9.132-8.057-9.215c0 0-.736-.998 0-1.579s2.696-1.909 3.751-4.646 3.627-8.716 6.035-11.787 5.063-5.562 6.308-6.39 4.733 1.081 7.635 5.063 5.824 11.309 9.626 13.444v14.442l-16.839 8.216-8.458-7.548z" fill="#5da8ed"/><path d="M90.377 55.974v-1.873s-.695-.026-.839-1.564l-5.85 4.6 1.641 17.694 2.351 1.986s-.196-1.636 1.168-1.425l.926-10.326.602-9.091z" class="E"/><path d="M91.01 54.385c3.504 5.881 2.979 16.335-1.569 20.842-.334.329-.9.18-1.024-.273-.525-1.934-.962-4.425-.962-7.388-.01-6.539 1.538-11.01 2.475-13.12.201-.448.828-.484 1.08-.062z" class="C"/><path d="M85.948 72.762c.036.072 1.168 4.214 1.168 4.214s-1.888 1.94-1.729 8.17v9.966H81.94l-1.25-22.345 4.347-3.298.911 3.293z" class="D"/><path d="M81.94 67.633l2.115 4.836s-1.333 10.624-1.06 15.168l.489 7.471h-1.549l-1.25-22.345 1.255-5.13z" class="B"/><path d="M82.891 48.977c2.83 0 5.042 1.389 6.642 3.56-.782 1.482-3.205 6.766-3.195 15.27.005 3.745.648 6.802 1.338 9.009-1.333 1.029-2.927 1.631-4.79 1.631-1.214 0-2.202-.988-2.202-2.202V51.179a2.21 2.21 0 0 1 2.207-2.202z" class="C"/><path d="M79.779 60.255s3.313-9.132 8.057-9.215c0 0 .736-.998 0-1.579s-2.696-1.909-3.751-4.646-3.627-8.716-6.035-11.787-5.063-5.562-6.308-6.39-4.733 1.081-7.635 5.063-5.824 11.309-9.626 13.444v14.442l16.84 8.216 8.458-7.548z" fill="#5da8ed"/><path d="M76.445 48.679c-4.358-2.315-17.133-5.32-25.483-5.32s-21.125 3.005-25.483 5.32-5.515 17.802-5.515 23.61c0 2.176 1.579 3.756 3.55 4.878 3.679 2.094 8.139 2.295 12.086.772l10.151-3.926a14.44 14.44 0 0 1 10.419 0l10.151 3.926c3.946 1.528 8.407 1.322 12.086-.772 1.976-1.122 3.55-2.701 3.55-4.878.005-5.809-1.153-21.295-5.51-23.61z" class="E"/><path d="M74.057 49.821c-3.946-1.827-15.528-4.193-23.096-4.193s-19.15 2.367-23.096 4.193-5.001 14.03-5.001 18.609c0 1.718 1.43 2.963 3.221 3.848 3.334 1.652 7.378 1.811 10.954.607l9.199-3.092c3.036-1.024 6.406-1.024 9.441 0l9.199 3.092c3.576 1.204 7.62 1.044 10.954-.607 1.79-.885 3.221-2.13 3.221-3.848.005-4.579-1.044-16.788-4.996-18.609z" fill="#134777"/><path d="M81.96 36.557s-18.743-9.719-23.652-10.11c-1.842-.149-3.334.041-4.481.334a11.62 11.62 0 0 1-5.732 0c-1.147-.293-2.639-.479-4.481-.334-4.908.396-23.652 10.11-23.652 10.11s-1.297 3.648-1.044 6.534.55 4.888 4.209 5.042 16.582-5.762 19.289-7.563 7.033-5.562 8.551-5.562 5.845 3.756 8.551 5.562 15.631 7.712 19.289 7.563 3.957-2.156 4.209-5.042c.242-2.886-1.055-6.534-1.055-6.534z" class="D"/><path d="M81.749 45.618c1.61-3.915-.468-7.177-.468-7.177l2.459 1.873c.391.432.705 1.564 1.369 3.74s2.361 4.224 2.361 4.224l-1.384-.664-4.337-1.996z" fill="#e0c9b3"/><path d="M87.28 49.121s-2.629-1.811-5.531-2.038c0 0-.463-.782 0-1.461 0 0 1.6.02 3.946 1.194s2.212 2.794 2.212 2.794l-.628-.489z" class="B"/><path d="M19.963 45.473c-1.61-3.915.468-7.177.468-7.177l-2.459 1.873c-.391.427-.705 1.564-1.369 3.74s-2.362 4.224-2.362 4.224l1.384-.664 4.337-1.996z" fill="#e0c9b3"/><path d="M14.432 48.977s2.629-1.811 5.531-2.037c0 0 .463-.782 0-1.461 0 0-1.6.021-3.946 1.194s-2.212 2.794-2.212 2.794l.628-.489zm7.625-15.692l-2.346 3.931.288 4.445c.139 2.187 1.991 3.884 4.183 3.802l.144-.005c3.473-.175 14.082-4.697 18.898-7.877s6.653-4.697 6.745-6.689-2.655-5.891-2.655-5.891l-9.873 3.977-15.383 4.306z" class="B"/><path d="M23.528 29.015c6.344-3.591 13.248-5.912 19.294-5.906 6.045.01 5.731 4.6 2.778 7.501S27.675 41.1 23.101 41.028s-3.704-4.888-3.036-7.085c.669-2.202 1.888-4.039 3.463-4.929z" class="D"/><path d="M22.649 34.19c.566-1.873 1.61-3.437 2.948-4.193 5.397-3.056 11.278-5.032 16.423-5.027 1.775 0 2.902.468 3.519 1.178-.309-1.23-1.533-2.156-4.029-2.156-5.145-.005-11.021 1.971-16.423 5.027-1.338.756-2.382 2.32-2.948 4.193-.401 1.322-.885 3.751.226 5.083-.396-1.343-.031-3.066.283-4.106z" class="B"/><path d="M24.727 39.243c3.89.062 16.634-6.39 19.15-8.865 1.296-1.271 1.991-2.922 1.667-4.229-.617-.71-1.749-1.173-3.519-1.178-5.145-.005-11.021 1.97-16.423 5.027-1.338.756-2.382 2.32-2.948 4.193-.314 1.039-.684 2.768-.283 4.106.463.556 1.209.926 2.356.947z" fill="#95cef9"/><path d="M80.046 33.285l2.346 3.931-.437 6.771s-.705 1.646-4.178 1.471-14.082-4.697-18.898-7.877-6.652-4.697-6.745-6.689c-.093-1.996 2.655-5.891 2.655-5.891l9.873 3.977 15.384 4.306z" class="B"/><path d="M78.575 29.015c-6.344-3.591-13.248-5.912-19.294-5.906-6.045.01-5.732 4.6-2.778 7.501s17.925 10.486 22.499 10.413 3.704-4.888 3.035-7.085-1.893-4.034-3.463-4.924z" class="D"/><path d="M79.45 34.19c-.566-1.873-1.61-3.437-2.948-4.193-5.397-3.056-11.278-5.032-16.423-5.027-1.775 0-2.902.468-3.519 1.178.309-1.23 1.533-2.156 4.029-2.156 5.145-.005 11.021 1.971 16.423 5.027 1.338.756 2.382 2.32 2.948 4.193.401 1.322.885 3.751-.226 5.083.401-1.343.031-3.066-.283-4.106z" class="B"/><path d="M77.376 39.243c-3.89.062-16.634-6.39-19.15-8.865-1.297-1.271-1.991-2.922-1.667-4.229.617-.71 1.749-1.173 3.519-1.178 5.145-.005 11.021 1.97 16.423 5.027 1.338.756 2.382 2.32 2.948 4.193.314 1.039.684 2.768.283 4.106-.463.556-1.209.926-2.356.947z" fill="#95cef9"/><path d="M19.675 96.795l-2.315-.355c-.607-.093-1.075-.592-1.127-1.204l-.412-4.831a1.33 1.33 0 0 1 1.327-1.446h2.732c.736 0 1.333.597 1.333 1.332v5.181c-.005.818-.731 1.441-1.538 1.322zm62.882 0l2.315-.355c.607-.093 1.075-.592 1.127-1.204l.412-4.831a1.33 1.33 0 0 0-1.327-1.446h-2.732c-.736 0-1.332.597-1.332 1.332v5.181c.005.818.73 1.441 1.538 1.322z" class="C"/><path d="M78.832 76.904c1.044-.597 2.012-1.322 2.737-2.233s1.209-2.037 1.204-3.313a86.85 86.85 0 0 0-1.137-13.243c-.422-2.475-.983-4.847-1.734-6.797-.376-.972-.797-1.842-1.297-2.567-.494-.725-1.065-1.312-1.765-1.687-1.163-.617-2.809-1.245-4.775-1.862-5.901-1.842-14.674-3.54-21.064-3.545-4.265 0-9.58.761-14.401 1.811-2.413.525-4.697 1.122-6.663 1.739-1.971.617-3.612 1.245-4.774 1.862-.695.37-1.266.962-1.765 1.688-.864 1.271-1.523 2.974-2.063 4.919-1.605 5.819-2.099 13.809-2.104 17.689-.005 1.281.479 2.403 1.204 3.313.731.916 1.693 1.641 2.737 2.233.37.211.844.082 1.055-.288s.082-.844-.288-1.055c-.931-.53-1.739-1.152-2.295-1.852-.556-.705-.864-1.456-.869-2.356 0-2.856.288-8.16 1.116-12.986.412-2.413.957-4.708 1.652-6.498.345-.895.725-1.662 1.127-2.248.401-.592.818-.988 1.214-1.194 1.014-.54 2.598-1.152 4.512-1.754 5.742-1.801 14.473-3.478 20.606-3.478 4.085 0 9.333.741 14.077 1.775 2.372.514 4.62 1.101 6.534 1.703 1.914.597 3.499 1.214 4.512 1.754.391.206.813.607 1.214 1.194.705 1.029 1.338 2.608 1.847 4.456 1.544 5.557 2.053 13.526 2.048 17.277-.005.9-.314 1.651-.87 2.356-.556.7-1.363 1.327-2.295 1.852-.37.211-.499.684-.288 1.055.206.365.674.494 1.05.283z" fill="#80c9ff"/></svg>