<svg xmlns="http://www.w3.org/2000/svg" width="101" height="101" fill="none" xmlns:v="https://vecta.io/nano"><path d="M18.961 49.246c-5.336-3.389-8.498-7.632-9.797-13.444-1.357-6.068.933-12.564 2.246-15.055l.405.618.091-.295a1.08 1.08 0 0 0-.353-.375c-.337-.208-.775-.207-1.137.083-1.85 1.483-3.807 4.763-4.666 8.82-.868 4.07-.641 8.975 1.936 13.718 3.248 5.976 7.839 9.415 11.298 11.126-.162-.63-.27-1.324-.266-2.046.004-.731.075-1.861.243-3.15z" fill="#e0c9b3"/><path d="M19.956 44.194c-3.916-1.854-6.861-4.728-8.47-10.021-1.444-4.753-.581-9.862.324-12.813l-.405-.618c-1.313 2.491-3.603 8.987-2.246 15.055 1.3 5.816 4.462 10.055 9.797 13.444l.062-.461c.193-1.443.497-3.077.938-4.586z" fill="#f5e4d4"/><g fill="#fff"><path d="M12.066 21.754v-.063a1.18 1.18 0 0 0-.166-.625l-.091.295.258.394z"/><path d="M11.484 34.173c1.609 5.293 4.554 8.171 8.47 10.021.532-1.813 1.273-3.443 2.264-4.373-2.135-.622-4.497-1.761-6.383-3.732-1.561-1.632-2.533-4.175-3.097-6.867-.559-2.656-.707-5.409-.676-7.468l-.258-.389c-.901 2.947-1.764 8.055-.32 12.809z"/></g><path d="M93.668 29.494c-.931-3.871-2.891-6.974-4.701-8.354-.36-.275-.789-.265-1.111-.049a1.11 1.11 0 0 0-.479.986l.001.086.628-1.011c1.322 2.357 3.683 8.535 2.532 14.388-1.126 5.731-4.155 9.938-9.392 13.365l.045.316c.01.068.015.131.025.194.015.104.025.207.036.307.005.059.015.117.02.176l.041.379c.005.041.005.077.011.117l.032.356c.005.045.006.09.011.131l.017.262c.001.041.006.077.006.117l.013.325c.016.542-.031 1.066-.115 1.564-.042.249-.093.489-.153.715-.004.023-.013.045-.022.072 3.329-1.642 7.929-5.106 11.041-11.211 2.359-4.627 2.451-9.342 1.515-13.231z" fill="#e0c9b3"/><path d="M87.403 23.066c1.387 2.826 1.952 7 .862 10.965-1.448 5.265-4.323 8.111-8.19 9.981.363 1.142.645 2.357.849 3.497.01.05.015.099.025.149l.054.32c.014.077.025.149.039.225l.059.392c.01.077.025.158.035.234.005.023.005.041.01.063 5.238-3.423 8.266-7.63 9.392-13.365 1.151-5.857-1.209-12.035-2.532-14.388l-.302.257-.183.062-.143.692.025.916z" fill="#f5e4d4"/><path d="M80.07 44.016c3.867-1.875 6.742-4.716 8.19-9.981 1.09-3.965.526-8.138-.861-10.965.024 1.833-.087 4.069-.483 6.246-.472 2.598-1.338 5.056-2.793 6.66-1.852 2.038-4.229 3.207-6.343 3.84.982.881 1.734 2.456 2.29 4.2z" fill="#fff"/><g fill="#949494"><path d="M23.899 40.223c1.1.207 2.058.276 2.767.262l.813-1.031c.013-.014.022-.027.031-.041-.774-.468-1.876-.838-3.169-.6l.258.403-.7 1.007z"/><path d="M19.902 49.08a2.66 2.66 0 0 0 .631.263c.489.125.993.005 1.482-.281l.135-.358.101-.259.507-1.239.092-.209.553-1.199c.013-.027.026-.059.044-.086l.63-1.205.123-.227.662-1.138.133-.209.739-1.143c.004-.009.013-.018.018-.027l.78-1.089.133-.182c-.709.009-1.671-.059-2.767-.262l-1.117 1.595-2.88 7.257z"/><path d="M20.841 44.593l-.886-.395c-.445 1.509-.744 3.139-.938 4.59l.066-.461c.198.304.468.563.814.757l2.88-7.266-1.937 2.775zm2.872-5.117l-.262.658.448.089.705-1.007-.258-.403a4.87 4.87 0 0 0-.904.26l.272.403z"/><path d="M23.9 40.223l-.448-.089-.669 1.679 1.117-1.59z"/><path d="M22.224 39.821l1.228.314.262-.658-.267-.407-.462.205a3.37 3.37 0 0 0-.761.547z"/><path d="M19.956 44.194l.886.395 1.941-2.775.669-1.679-1.228-.313c-.995.93-1.732 2.565-2.268 4.373zm55.335-3.849l-1.106-1.02.278-.469a4.36 4.36 0 0 0-1.649.581l.808 1.019c.438.012 1.011-.022 1.669-.112zM80.1 56.32c.283-.428.728-1.296 1.016-2.393-.293 1.097-.733 1.965-1.016 2.393zm1.11-6.91l.036.306a3.68 3.68 0 0 0-.036-.306z"/><path d="M81.318 50.384l.032.356-.032-.356zm-.128-1.168l-.045-.316.045.316zm-1.688-.645a2.49 2.49 0 0 0 .879-.445l-2.175-5.096-2.916-2.68c-.658.085-1.231.12-1.669.112a32.72 32.72 0 0 1 4.429 7.888c.487.255.98.357 1.452.22zm1.785 4.568l-.153.715.153-.715z"/><path d="M81.361 50.871l.017.262-.017-.262zm.023.379l.013.325-.013-.325zm-.272 2.676c.004-.023.013-.045.021-.072l-.021.072zm.159-4.033l.041.379-.041-.379zm-.322-2.226l.054.32-.054-.32zm-2.743-4.637l2.175 5.095a2.31 2.31 0 0 0 .538-.612 29.07 29.07 0 0 0-.849-3.496l-.52.246-1.343-1.233zm2.836 5.182l.059.392-.059-.392zm.103.689c-.005-.022-.005-.04-.01-.063.005.022.005.04.01.063zm-5.855-8.556a14.95 14.95 0 0 0 1.64-.306l-.261-.611.142-.228c-.858-.359-1.649-.434-2.348-.34l-.278.469 1.106 1.015z"/><path d="M76.93 40.039a15 15 0 0 1-1.64.306l2.916 2.68-1.276-2.986z"/><path d="M77.019 39.289c-.068-.035-.141-.057-.209-.088l-.141.228.261.611.85-.232c-.238-.214-.493-.395-.761-.518z"/><path d="M79.55 44.267l.521-.246c-.556-1.749-1.308-3.324-2.29-4.21l-.85.232 1.276 2.99 1.344 1.233z"/></g><g fill="#4d4d4d"><path d="M81.251 49.717l.02.176-.02-.176zm-.061-.5l.025.194-.025-.194zm.188 1.916l.006.117-.006-.117zm-.07-.861l.011.117c-.001-.041-.006-.081-.011-.117zm.042.468l.011.131-.011-.131zm-.348-2.753l.039.225-.039-.225zm-.078-.474l.025.149-.025-.149zm.177 1.09l.035.234-.035-.234zm-1.184 6.504l.093.586.09.631c.283-.428.728-1.296 1.016-2.393l-1.297.577.098.599z"/><path d="M80.809 49.122l-.424-.997c-.237.188-.528.346-.879.445-.477.137-.97.035-1.457-.225l.332.867c.005.018.009.036.019.054l.089.261.381 1.146.142.477.27.963.138.553.211.923.12.581.067.329 1.297-.577c.004-.023.013-.045.022-.072l.153-.715c.084-.493.131-1.022.115-1.563l-.013-.325-.006-.117-.017-.262-.011-.131-.032-.356-.011-.117-.041-.379-.02-.176-.036-.306-.025-.194-.045-.315-.34.23z"/><path d="M80.381 48.126l.424.997.336-.221c-.005-.023-.005-.041-.01-.063l-.035-.234-.059-.392-.039-.225-.054-.32-.029-.149a2.19 2.19 0 0 1-.534.607zm-61.306 6.36a.51.51 0 0 1-.086-.044c.319 1.247.851 2.237 1.173 2.685l.017-.041.008-.063c-.327-.479-.799-1.394-1.112-2.537z"/><path d="M18.756 52.196c.004-.7.067-1.743.21-2.946-.168 1.284-.244 2.414-.243 3.145a8.03 8.03 0 0 0 .266 2.046.51.51 0 0 1 .086.044c-.194-.697-.322-1.472-.319-2.289zm.205-2.95l.062-.461-.062.461z"/><path d="M20.288 56.141l.158-1.05-1.372-.61c.313 1.143.785 2.058 1.112 2.537l.089-.764c0-.032.008-.072.012-.113z"/><path d="M20.496 54.787l.038-.222.276-1.353.064-.276.339-1.341.052-.177.381-1.26.052-.163.322-.929c-.488.286-.992.406-1.481.281-.24-.06-.444-.157-.631-.263l-.24.604-.701-.438-.21 2.946c-.003.817.129 1.596.319 2.289l1.371.609.05-.308z"/><path d="M19.902 49.08c-.346-.199-.62-.457-.814-.757l-.066.461-.057.461.701.438.236-.604z"/></g><g fill="#ab6f33"><path d="M28.52 38.256l.079-.081a.68.68 0 0 0-.079.081zm-.872 1.001l-.129.155.129-.155zm-7.552 18.71l.023-.28-.023.28zm-.087 1.681l.006-.262-.006.262zm11.813-12.625c.377.871.997 1.666 1.783 2.392l.767-.425a46.2 46.2 0 0 1 2.348-7.896c2.465-6.209 5.201-9.992 6.7-11.777-4.357 1.055-8.348 3.116-11.751 5.938-.912 1.71-2.15 6.453.154 11.769zm48.476 11.289l.033.465-.033-.465zm-.157-1.646l.066.563-.066-.563zm.212 5.881l.035-2.163-.044 2.141c.005.009.009.018.009.023zm-15.889-15.27c1.98 1.572 4.357 2.787 6.927 2.844 2.046.045 3.629-.088 4.832-.303l-1.005-2.971-3.382-6.606a4 4 0 0 1 .978-.803c-4.12-4.976-9.643-8.579-15.903-10.113 1.135 1.845 3.188 5.552 5.441 11.428a65.82 65.82 0 0 1 2.113 6.523zM29.486 37.243l.134-.133-.134.133zm-9.494 23.895v.005l.031.957-.031-.957zm10.573-24.93l.188-.169-.187.169z"/><path d="M75.217 46.847l1.005 2.971.468-.092-1.474-2.879zM26.675 40.48zm.84-1.067c-.014.014-.023.028-.036.042a.27.27 0 0 0 .036-.042zm-5.264 9.031l-.1.259.1-.259zm.599-1.448l-.092.209c.026-.073.061-.141.092-.209zm.597-1.286l-.043.085.043-.085zm1.549-2.783l-.133.209.133-.209zm-.795 1.347l-.123.227.123-.227z"/><path d="M25.753 41.757c-.005.009-.014.019-.018.028.005-.009.014-.019.018-.028zm.913-1.267l-.133.182.133-.182zm45.169-.249l3.382 6.606-.329-.646-.371-1.426-1.287-3.789-.183-.535.565.011h.004l-.808-1.019c-.43.259-.765.552-.974.798z"/><path d="M76.695 49.727l-1.478-2.879 1.478 2.879zm1.355-1.381a32.88 32.88 0 0 0-4.429-7.888h-.004l-.564-.011.183.535 1.287 3.789-.385-1.471c.711 1.544 2.281 4.183 3.913 5.046z"/><path d="M74.888 46.202l.329.646-.7-2.072.371 1.427zm5.029 8.905l.093.586-.093-.586zm-1.536-5.896l-.332-.867c-1.632-.863-3.201-3.502-3.912-5.041l.385 1.471.704 2.072 1.473 2.879c.698-.149 1.255-.328 1.681-.514zm.019.051l.089.261-.089-.261zm.47 1.411l.142.477-.142-.477zm.412 1.444l.138.554-.138-.554zm.349 1.477l.12.581-.12-.581zm-59.343 2.547l-.017.118.017-.118zm.208-1.353l.038-.222-.038.222zm1.145-4.634l.052-.163-.052.163zm-.831 3.054l.064-.276-.064.276zm.398-1.613l.052-.177-.052.177z"/></g><g fill="#964b00"><path d="M80.207 57.226l.091 1.087-.091-1.087zm-.066-.56l-.041-.343-.004.005.045.338z"/><path d="M80.388 60.384v-.032l-.057-1.575.057 1.575c.005.013 0 .023 0 .032zm-.292-4.055l.005-.005z"/><path d="M79.917 55.107l-.103-.599.103.599zm.179 1.221l.005-.005-.09-.631.085.636z"/><path d="M78.49 49.528l.381 1.146-.381-1.146zm1.325 4.976l-.068-.329.059.333z"/><path d="M79.416 52.671l.211.923-.211-.923zm-1.034-3.459a.29.29 0 0 0 .019.054c-.005-.023-.01-.041-.019-.054zm.63 1.943l.27.963-.27-.963zm1.07 5.187l-.834-1.628-.891.269-.356.086-.117-.346-1.663-4.904c-1.203.214-2.786.348-4.832.303-2.574-.057-4.951-1.272-6.927-2.844l.285 1.12 5.272 2.951c7.164 4.353 9.754 9.787 10.323 11.175a33.62 33.62 0 0 0 .044-2.141v-.032c-.007-.528-.027-1.052-.057-1.575l-.033-.465-.091-1.087-.066-.563-.045-.338c-.004.009-.009.014-.013.018z"/><path d="M76.227 49.819l1.662 4.903.117.346.355-.086.89-.269-2.557-4.986-.468.092z"/><path d="M79.248 54.714l.834 1.628c.004-.005.009-.009.009-.018-.004.005-.009.009-.009.018l-.834-1.628z"/><path d="M76.695 49.727l2.553 4.986-2.553-4.986z"/><path d="M79.917 55.107l-.107-.599-.557.206.834 1.628c.004-.005.009-.009.009-.018l-.085-.636-.093-.581z"/><path d="M79.248 54.713l.557-.206-.059-.333-.12-.581-.211-.923-.138-.553-.27-.962-.142-.477-.381-1.146-.089-.261c-.005-.018-.014-.036-.019-.049-.426.186-.984.365-1.686.514l2.557 4.977zm-47.58-19.459l-.915.789.915-.789zm-2.053 1.856l.95-.902-.95.902zm-1.967 2.148l.872-1.005-.872 1.005zm-7.633 20.124l.081-1.414-.081 1.414zm.164-2.296l-.055.601.064-.619-.009.018zm8.416-18.915l.886-.928-.886.928zm-8.603 22.967l.017-1.49-.017 1.49zm6.683-20.657l.808-1.022-.808 1.022zm-.142.186l-.78 1.089.78-1.089zm-2.46 3.839l-.63 1.205.63-1.205zm1.662-2.722l-.739 1.143.739-1.143zm-.872 1.353l-.662 1.138.662-1.138zm-1.459 2.66l-.553 1.199.553-1.199zm-.646 1.408l-.507 1.239.507-1.239zm-.73 1.852l.126-.349-.135.358z"/><path d="M20.191 57.031c-.009.014-.009.032-.013.054l.009-.018c0-.009 0-.022.004-.036zm-.009-.009l.085-.764-.085.764zm.106-.881l.162-1.045h-.005l-.158 1.045zm.246-1.575l.276-1.354-.276 1.354z"/><path d="M20.874 52.932l.339-1.341-.339 1.341zm.819-2.941l.331-.934-.331.934zm-1.247 5.105h.005l.046-.308-.05.308zm.814-3.682l.381-1.26-.381 1.26zm8.291.465l4.054-2.464c-.791-.726-1.406-1.521-1.783-2.392-2.305-5.315-1.062-10.063-.154-11.773-.308.257-.616.518-.915.788l-.187.169a29.61 29.61 0 0 0-.95.902l-.134.133a28.65 28.65 0 0 0-.886.928l-.08.082a30.94 30.94 0 0 0-.872 1.005c-.044.05-.084.105-.129.155a4.03 4.03 0 0 1 .89.72l-2.321 4.834-3.24 10.468-.108.349-.358-.076c-.367-.081-.793-.202-1.269-.363l-.857 1.786-.055-.081-.013.023c-.02.208-.049.412-.064.619l-.023.28a29.34 29.34 0 0 0-.081 1.414c-.003.086-.007.176-.006.262a32.77 32.77 0 0 0-.017 1.49v.005c.004.32.017.636.03.957 0 .023.005.045.005.068 1.081-2.231 3.77-6.578 9.523-10.288z"/><path d="M22.377 55.707l.358.077.108-.349 3.245-10.467-4.98 10.373a11.44 11.44 0 0 0 1.269.367z"/><path d="M20.196 57.045l.055.081.857-1.786-.082-.026-.831 1.731zm6.479-16.565c.081.008.172.007.248.006l.564-.025-.169.539-1.23 3.966 2.32-4.833c-.201-.223-.503-.481-.89-.72l-.035.041-.808 1.026z"/><path d="M27.483 40.457l-.564.026c-.077.005-.167.002-.253.003l-.133.182-.78 1.089c-.004.009-.013.018-.018.027l-.739 1.143-.133.209-.662 1.137-.123.227-.63 1.205c-.013.027-.026.059-.044.086l-.553 1.199-.092.209-.508 1.239-.101.259-.126.349c1.591-.928 3.069-3.571 3.739-5.119l-.68 2.916-4.057 8.46.082.026 4.975-10.373 1.23-3.967.169-.535zm-7.295 16.612l.014-.023c-.014 0-.014.014-.014.023z"/><path d="M20.451 55.095l-.162 1.045-.017.118-.08.773.84-1.722-.581-.214z"/><path d="M21.641 50.154l-.381 1.26-.052.177-.339 1.341-.064.276-.276 1.354-.038.222-.046.308.581.218 4.057-8.46.68-2.917c-.666 1.544-2.148 4.186-3.739 5.119l-.331.934-.052.168z"/></g><g fill="#949494"><path d="M56.91 29.33l-.926-1.406s-2.525-.455-5.69-.413-5.736.563-5.736.563-.433.398-1.14 1.243c2.043-.496 4.166-.777 6.351-.806 2.456-.032 4.843.257 7.14.819z"/><path d="M34.372 48.994l2.718-1.386c.036-2.791 1.317-6.65 2.513-9.785.244-.64.862-.386.74.302-.517 2.937-.888 6.337.396 7.156.273.172.7.325 1.23.458 2.546-.742 5.033-1.086 7.728-1.121 2.51-.033 4.847.203 7.234.786.935-.319 1.508-.729 1.524-1.225.045-1.409-.317-3.874-.682-5.901-.112-.622.515-.991.834-.476 1.089 1.778 2.326 4.214 2.885 6.572.835.987 1.841 2.003 2.977 2.905-.513-1.93-1.196-4.12-2.117-6.519-2.249-5.876-4.302-9.583-5.441-11.428-2.296-.561-4.684-.851-7.14-.818a28.5 28.5 0 0 0-6.351.805c-1.498 1.785-4.234 5.568-6.699 11.777-1.154 2.914-1.886 5.596-2.348 7.9zm9.624-17.716l1.029-1.725a.6.6 0 0 1 .506-.291l9.015-.118c.23-.003.44.125.541.327l.881 1.731a.6.6 0 0 1-.861.77l-1.717-1.133c-.1-.066-.218-.101-.336-.099l-6.031.079c-.108.001-.216.034-.31.09l-1.89 1.181c-.533.337-1.15-.269-.828-.811z"/><path d="M61.487 44.372l.234 1.288.108 1.38 2.921 1.357-.286-1.12c-1.136-.902-2.143-1.918-2.977-2.905z"/></g><g fill="#595959"><path d="M59.431 41.515c.462.788 1.161 1.804 2.056 2.858-.559-2.363-1.792-4.799-2.885-6.572-.318-.515-.946-.146-.834.476.365 2.027.722 4.492.682 5.901-.016.497-.593.902-1.524 1.225a30.89 30.89 0 0 1 3.01.909l-.505-4.797zm-18.692 3.766c-1.284-.819-.913-4.219-.396-7.156.122-.688-.5-.937-.74-.302-1.196 3.14-2.473 6.994-2.513 9.785 1.692-.794 3.3-1.411 4.879-1.87-.53-.133-.956-.285-1.23-.458z"/><path d="M59.936 46.306l1.892.734-.108-1.38c-.051-.424-.133-.856-.233-1.288-.894-1.054-1.593-2.069-2.055-2.858l.505 4.792z"/></g><path d="M44.824 32.094l1.89-1.181a.62.62 0 0 1 .31-.09l6.027-.079c.122-.002.235.033.335.099l1.717 1.133a.6.6 0 0 0 .861-.77l-.881-1.731c-.102-.202-.311-.33-.542-.327l-9.015.118a.6.6 0 0 0-.506.291l-1.029 1.725a.6.6 0 0 0 .832.811z" fill="#fff"/><g fill="#3d3a3a"><path d="M81.896 69.044l.031-.005-1.458-6.179-.121-.314-.149 1.713c1.128 2.391 1.581 4.245 1.697 4.785zM20.172 63.8l-.045.01-.103-1.642c-.448.927-.622 1.489-.622 1.489L18.124 69.8c.094-.408.652-2.636 2.117-5.527l-.069-.473z"/><path d="M20.172 63.8l.069.478.299-.577-.369.1zm60.144-.67l-.446.439.339.695.149-1.713c-.005-.009-.005-.014-.009-.023l-.033.601z"/><path d="M34.372 48.994l-.766.426.589.502.177-.928zm41.974 9.257a26.74 26.74 0 0 1 3.523 5.313l.446-.439.028-.605c-.569-1.388-3.16-6.821-10.323-11.175-1.893-1.149-3.631-2.124-5.271-2.952l.34 1.472c4.876 2.433 8.9 5.627 11.257 8.386zM20.172 63.8l-.148-1.633v.005l.103 1.642.045-.014z"/><path d="M23.688 58.94c2.182-2.697 5.874-5.829 10.388-8.326l.117-.697a13.1 13.1 0 0 1-.589-.502 81.76 81.76 0 0 0-4.054 2.464c-5.753 3.71-8.441 8.057-9.523 10.292a19.33 19.33 0 0 0 .148 1.633l.369-.1a29.95 29.95 0 0 1 3.143-4.764zm26.163-12.858a26.83 26.83 0 0 1 2.629.101c1.763-.15 3.349-.405 4.446-.781-2.383-.578-4.72-.819-7.234-.786-2.695.035-5.178.379-7.728 1.122 1.182.296 2.909.486 4.811.56a27.02 27.02 0 0 1 3.076-.216z"/><path d="M34.682 50.291l2.531-1.234c-.092-.437-.125-.924-.118-1.448l-2.718 1.386-.173.928.479.369zm27.101-1.886l3.306 1.465-.34-1.472-2.921-1.357c.021.528.004.98-.045 1.364z"/><path d="M34.194 49.922l-.117.697.601-.324-.483-.373zm25.902-2.131l-.155-1.483a29.68 29.68 0 0 0-3.01-.909c-1.092.375-2.678.636-4.446.781 2.603.219 5.166.795 7.611 1.611z"/><path d="M37.208 49.056c2.99-1.33 6.232-2.334 9.572-2.758-1.906-.074-3.633-.264-4.811-.56-1.579.459-3.187 1.076-4.879 1.87a6.99 6.99 0 0 0 .118 1.448zm22.888-1.265l1.692.614c.045-.384.066-.841.045-1.364l-1.892-.734.155 1.483z"/></g><g fill="#595959"><path d="M78.364 68.889c-.986.92-2.31 1.177-3.946 1.05.359 1.901.05 3.86-.762 5.613-.918 1.981-2.471 3.698-4.412 4.758-2.112 1.152-4.507 1.319-6.851 1.566-4.044.432-8.123.612-12.191.665-3.598.047-7.201-.01-10.794-.242-2.228-.142-4.498-.095-6.66-.721-3.15-.911-6.039-3.989-6.821-7.171-.31-1.26-.341-2.601-.11-3.886-1.321-.168-2.451-.609-3.36-1.428l-1.45 1.003-2.906-.206.017-.072c-.008.045-.017.068-.017.068-.077 1.039.065 2.221.329 3.382a.7.7 0 0 1 .058-.028c.796-.281 1.851.639 2.352 2.06.502 1.411.267 2.782-.52 3.072a6.95 6.95 0 0 0 .411.667c1.706 2.384 4.778 3.568 4.778 3.568 3.236 1.633 13.88 2.487 24.7 2.345s21.438-1.274 24.631-2.991c.031-.019.058-.032.09-.051l.19.047s3.04-1.268 4.683-3.691a6.18 6.18 0 0 0 .393-.691c-.767-.297-1.024-1.644-.568-3.045.438-1.342 1.37-2.262 2.148-2.155.171-1.086.242-2.179.144-3.158 0 0-.01-.059-.034-.162l-2.868.277-.656-.443zM61.228 57.682l-2.468-1.616-2.324.094a33.79 33.79 0 0 1 4.792 1.522z"/><path d="M29.081 64.573l.174-.192-6.797 4.703c.905.819 2.039 1.26 3.36 1.428.181-1 .516-1.966 1.024-2.84.556-.951 1.292-2.017 2.239-3.1zm44.479 2.948c.421.78.703 1.589.858 2.413 1.631.128 2.96-.129 3.946-1.049l-7.104-4.648a18.1 18.1 0 0 1 2.3 3.284zM40.195 56.814l-2.117 1.464a34.21 34.21 0 0 1 4.003-1.542l-1.886.079zm6.671-4.615l-2.949 2.043c2.125.564 4.171.957 5.831 1.192l.212-.007c2.198-.029 4.383.25 6.471.737l2.324-.094-6.371-4.165-5.518.294z"/><path d="M42.081 56.74c2.428-.759 5.027-1.249 7.663-1.306a51.76 51.76 0 0 1-5.831-1.192l-3.723 2.573 1.891-.074zm4.785-4.542l5.521-.293-2.618-1.713-2.903 2.006zm31.498 16.69l.669.438 2.867-.277c-.115-.54-.569-2.398-1.692-4.785-.29 2.288-.917 3.754-1.844 4.624zm-57.352 1.198l1.449-1.003c-1.092-.988-1.852-2.526-2.221-4.805-1.465 2.89-2.023 5.123-2.117 5.526l-.017.072 2.905.21z"/><path d="M29.615 63.987c1.287-1.358 3.249-2.882 5.656-4.264l-10.388 2.804c.398.379.721.939.87 1.609.307 1.359-.214 2.635-1.159 2.846s-1.96-.719-2.267-2.079c-.139-.617-.102-1.213.064-1.703l-1.849.498-.3.577c.369 2.28 1.129 3.818 2.221 4.806l6.797-4.703.356-.393zm48.329-.984a3.33 3.33 0 0 1-.025 1.174c-.271 1.367-1.261 2.328-2.211 2.137s-1.504-1.448-1.233-2.815c.127-.643.413-1.193.778-1.581l-14.275-5.737-.021-.203-2.202.087 2.468 1.616c4.035 1.622 7.378 3.854 9.295 5.77a12.37 12.37 0 0 1 .412.432l.321.357 7.104 4.648c.932-.87 1.554-2.332 1.845-4.625a21.96 21.96 0 0 0-.339-.695l-.152.146-1.766-.713z"/><path d="M65.089 49.874c.802 3.696.877 5.908.877 5.908l-5.009.201.021.203 14.275 5.737c.414-.434.926-.658 1.433-.561.666.131 1.126.789 1.259 1.641l1.775.713.152-.146c-.83-1.646-1.974-3.496-3.523-5.313-2.357-2.764-6.381-5.957-11.257-8.381zm-24.895 6.941l-6.557.262s-.195-2.49.439-6.462c-4.518 2.497-8.211 5.629-10.388 8.326A30.07 30.07 0 0 0 20.54 63.7l1.849-.498c.195-.59.578-1.032 1.096-1.148.482-.11.981.082 1.397.474l10.388-2.804a35.84 35.84 0 0 1 2.807-1.445l2.116-1.463zm12.285-10.636l-2.628-.101a27.89 27.89 0 0 0-3.071.216 47.07 47.07 0 0 0 5.7-.115zm-15.493 4.506c.41-.091.821-.038 1.194.124-.511-.4-.817-1.005-.971-1.757l-2.53 1.234 1.398.907a1.96 1.96 0 0 1 .91-.508z"/><path d="M60.52 52.232c.008-.041.026-.077.035-.113l-.149-1.411c-.238.107-.472.169-.67.234-.4.127-3.536.633-7.342.963l6.371 4.165 2.202-.088-.227-2.146a2.45 2.45 0 0 1-.22-1.605zm-21 .275c.024.113.035.221.045.329a40.72 40.72 0 0 0 4.353 1.401l2.949-2.043c-3.363.044-6.513-.222-8.241-1.116a2.5 2.5 0 0 1 .895 1.429z"/><path d="M60.4 50.708l.149 1.411c.291-1.196 1.365-1.986 2.451-1.775 1.123.22 1.834 1.425 1.584 2.688s-1.363 2.108-2.486 1.888c-.611-.118-1.091-.537-1.369-1.088l.227 2.146 5.009-.201s-.079-2.211-.876-5.908l-3.306-1.465c-.179 1.506-.791 2.038-1.383 2.303zm-26.762 6.369l6.557-.262 3.723-2.573c-1.45-.387-2.932-.851-4.353-1.401.105 1.136-.536 2.174-1.558 2.4-1.116.249-2.251-.566-2.534-1.822-.192-.86.068-1.694.608-2.22a15.15 15.15 0 0 1-1.398-.907l-.601.324c-.639 3.972-.444 6.462-.444 6.462z"/><path d="M38.179 50.814c.159.07.305.163.446.27 1.727.894 4.878 1.16 8.241 1.116l2.899-2.007 2.619 1.713 7.342-.963c.202-.066.436-.128.67-.234l-.309-2.917c-2.44-.821-5.003-1.393-7.611-1.611-1.831.155-3.844.19-5.701.12-3.34.423-6.582 1.423-9.572 2.758.159.752.465 1.357.976 1.757z"/><path d="M60.4 50.708c.593-.265 1.204-.797 1.383-2.303l-1.692-.614.309 2.917z"/></g><g fill="#2b2b2b"><path d="M61.528 69.263c-3.813.533-7.652.741-11.485.791-3.39.044-6.787-.047-10.172-.354-1.546-.142-3.113-.153-4.643-.472-3.654.928-6.878 1.603-9.411 1.284-.231 1.29-.2 2.626.11 3.886.782 3.182 3.671 6.259 6.821 7.171 2.162.626 4.432.578 6.66.721 3.593.233 7.196.29 10.794.242 4.067-.053 8.142-.233 12.191-.665 2.344-.252 4.74-.419 6.851-1.566 1.946-1.059 3.499-2.777 4.412-4.758.808-1.753 1.121-3.712.762-5.613-2.12-.166-4.754-.981-7.826-1.83-1.616.748-3.356.924-5.064 1.163z"/><path d="M71.256 64.242l-.387-.252c-.791 1.342-1.769 2.484-2.891 3.307-.447.331-.909.59-1.385.808 3.072.849 5.706 1.663 7.826 1.83a8.29 8.29 0 0 0-.858-2.413c-.537-.991-1.287-2.128-2.305-3.279zm-36.028 4.986a10.25 10.25 0 0 1-1.636-.475c-1.688-.664-3.298-2.219-4.511-4.18a20.26 20.26 0 0 0-2.239 3.099c-.512.874-.843 1.84-1.024 2.84 2.533.324 5.757-.355 9.411-1.284z"/><path d="M71.255 64.242l-.321-.357-.062.105.382.252z"/></g><g fill="#000"><path d="M35.228 69.228c1.535.314 3.102.33 4.643.472 3.386.312 6.782.399 10.172.354 3.833-.05 7.672-.258 11.485-.791 1.708-.239 3.449-.415 5.069-1.159-3.901-1.078-8.508-2.214-13.65-2.147-6.266.082-12.44 1.933-17.719 3.27z"/><path d="M47.058 56.54l-10.609 2.866-7.19 4.975-.174.192c1.213 1.962 2.823 3.516 4.511 4.18.54.214 1.084.365 1.636.475 5.279-1.338 11.453-3.189 17.715-3.27 5.146-.067 9.748 1.069 13.65 2.147a8.02 8.02 0 0 0 1.385-.808c1.122-.823 2.105-1.969 2.891-3.307l-9.645-6.307c-1.511-.608-3.126-1.133-4.792-1.522l-9.377.38z"/><path d="M38.078 58.278l-1.624 1.123 10.609-2.866-4.977.201a34.52 34.52 0 0 0-4.007 1.542z"/><path d="M47.058 56.54l9.373-.376c-2.088-.487-4.272-.766-6.471-.737l-.212.007.945.123-3.635.982z"/><path d="M47.058 56.54l3.631-.982-.945-.123c-2.636.057-5.23.547-7.663 1.306l4.977-.201zm23.877 7.344l-.412-.433c-1.917-1.916-5.26-4.148-9.295-5.77l9.645 6.308c.018-.036.04-.068.062-.105zm-35.665-4.16c-2.406 1.381-4.369 2.906-5.656 4.264l-.356.393 7.195-4.979-1.183.322z"/><path d="M38.078 58.278l-2.808 1.445 1.183-.318 1.624-1.127z"/></g><g fill="#3d3a3a"><path d="M17.961 76.312c.502 1.42 1.556 2.34 2.352 2.059-.625-1.166-1.427-3.119-1.877-5.108-.75.321-.962 1.665-.475 3.049z"/><path d="M20.85 75.29c-.502-1.42-1.556-2.34-2.352-2.059l-.058.028c.45 1.994 1.248 3.947 1.89 5.103.782-.29 1.017-1.661.52-3.072zm59.402 2.296c.802.26 1.833-.687 2.297-2.12s.189-2.806-.614-3.066a.91.91 0 0 0-.149-.034c-.317 2.017-.986 4.003-1.58 5.198.018.009.032.013.045.022z"/><path d="M79.639 74.52c-.456 1.405-.199 2.747.568 3.044.594-1.195 1.258-3.181 1.579-5.198-.778-.107-1.709.812-2.147 2.154zm-57.313-9.615c.307 1.36 1.321 2.294 2.267 2.079s1.466-1.487 1.159-2.846c-.149-.666-.472-1.231-.87-1.61l-2.493.674c-.161.49-.203 1.086-.064 1.703z"/><path d="M23.486 62.054c-.518.115-.9.554-1.096 1.148l2.493-.674c-.416-.392-.915-.579-1.397-.474zm52.226 4.26c.951.186 1.941-.77 2.212-2.138.08-.412.08-.809.025-1.174l-2.687-1.08c-.365.384-.651.934-.778 1.582-.276 1.363.278 2.624 1.229 2.81z"/><path d="M76.685 61.357c-.503-.097-1.019.126-1.433.561l2.687 1.08c-.129-.847-.589-1.509-1.254-1.641zm-38.06-10.274l-.2-.101a2.35 2.35 0 0 1-.246-.168c-.372-.162-.784-.215-1.194-.124-.356.081-.656.266-.905.509 1.065.614 2.25 1.163 3.485 1.643-.01-.108-.016-.217-.045-.329-.134-.603-.466-1.1-.895-1.429z"/><path d="M35.472 53.418c.283 1.256 1.418 2.072 2.534 1.823 1.022-.23 1.663-1.268 1.558-2.4-1.234-.48-2.42-1.029-3.485-1.643-.535.526-.799 1.361-.608 2.22zm3.153-2.335a2.26 2.26 0 0 0-.446-.27c.078.062.16.12.246.168l.2.101zm22.11 2.754l-.185-1.718c-.008.041-.026.077-.035.113-.11.579-.017 1.138.22 1.604z"/><path d="M62.103 54.925c1.123.22 2.236-.625 2.486-1.888s-.461-2.468-1.584-2.688c-1.087-.216-2.16.575-2.451 1.775l.181 1.718c.278.547.758.961 1.369 1.084z"/></g></svg>