<svg xmlns="http://www.w3.org/2000/svg" xmlns:xlink="http://www.w3.org/1999/xlink" width="100" height="101" fill="none" xmlns:v="https://vecta.io/nano"><path d="M67.385 35.293c-1.034-3.852-3.852-7.984-5.166-10.801s-4.321-3.475-6.104-1.314-3.01 4.978-6.757 4.978-4.969-2.817-6.752-4.978c-1.792-2.16-4.798-1.503-6.113 1.314s-2.958 7.199-3.992 11.047-8.032 21.453-8.032 21.453 4.211 4.605 24.884 5.074c20.673-.469 24.884-5.074 24.884-5.074l-6.853-21.699z" fill="#ff9f1b"/><path d="M57.92 22.116l-.053-.048s-.372.066-.267.145l.145.114.026.026.149-.237zm-.092 1.012c.175-.105.267-.329.267-.548l-.009-.127-.232.061.004.066c0 .114-.044.219-.131.276l.101.272zm-.543.359c.026-.075.07-.131.136-.166l.175-.083-.083-.285-.175.083c-.131.061-.224.188-.272.333l.219.118zm.28.596l-.079-.101-.132-.136c-.044-.044-.066-.096-.079-.153l-.228.079c.026.118.079.228.158.311l.131.136.039.053.188-.189zm-.276.96c.228-.061.368-.32.373-.578l-.237-.009c-.004.136-.07.263-.184.294l.048.294zm-.706.11l.031-.004.429-.061-.026-.298-.429.061-.057.013.052.289zm-.131.482a.36.36 0 0 1-.053-.188c0-.07.017-.136.053-.188l-.188-.184a.71.71 0 0 0-.101.377c0 .127.035.263.105.372l.184-.188zm.46.758c-.018-.066-.048-.131-.083-.189l-.224-.342-.18.193.224.342.044.096.219-.101zm-.473.811l.075-.009c.193-.026.342-.197.394-.403l-.224-.101c-.031.105-.096.188-.197.202l-.075.009.026.302zm-.618.149c.035-.044.079-.07.136-.079l.25-.035-.026-.298-.25.035a.42.42 0 0 0-.267.153l.158.223zm.022.697l-.092-.39-.009-.088.004-.048-.232-.048-.004.096c0 .057.009.118.022.171l.092.39.219-.083zm-.009 1.008c.079-.109.127-.254.127-.412a.76.76 0 0 0-.017-.171l-.031-.131-.228.088.031.132.009.088a.33.33 0 0 1-.066.206l.175.202zm-.784.075l.324.105.118.018.07-.009-.035-.298-.035.004-.061-.009-.324-.105-.057.294zm-.613-.127l.101-.031.057.009.219.07.057-.294-.219-.07-.031.145.031-.145-.118-.017c-.074 0-.145.022-.206.061l.11.272zm-.074.635l-.053-.294-.009-.07.022-.127-.215-.131c-.031.079-.048.166-.048.258l.013.14.053.294.237-.07zm.018 1.003c.057-.096.088-.219.088-.351l-.013-.14-.039-.215-.228.07.039.215.004.07c0 .066-.018.123-.044.175l.193.175zm-.784.11l.245.11c.053.022.105.035.153.035a.41.41 0 0 0 .127-.022l-.066-.289-.061.013-.079-.017-.245-.114-.075.285zm-.657-.285l.039.013.394.171.079-.285-.394-.175-.075-.026-.044.302zm-.276.425v-.123c0-.118.053-.215.123-.267l-.114-.263c-.145.101-.245.298-.245.53v.123h.237zm0 .911v-.609h-.237v.609h.237zm-.675.548a.39.39 0 0 0 .202.057c.145 0 .28-.088.372-.228l-.184-.188c-.044.07-.114.118-.188.114l-.101-.031-.101.276zm-.609-.368l.083.031.307.197.105-.267-.307-.197c-.057-.035-.114-.057-.171-.061l-.018.298zm-.285.482l.031-.228c.013-.092.053-.162.105-.206l-.127-.254c-.105.088-.188.232-.21.407l-.031.228.232.053zm-.18.951a.69.69 0 0 0 .088-.263l.048-.386-.232-.048-.048.386-.044.132.189.18zm-.784-.017l.096.109c.092.105.206.153.311.153l.123-.022-.061-.294-.061.009c-.057 0-.11-.022-.158-.075l-.096-.11-.153.228zm-.535-.605l.355.403.158-.228-.355-.403-.158.228zm-.482-.294l.105-.031c.057 0 .11.026.158.075l.039.044.158-.228-.039-.044a.42.42 0 0 0-.316-.153c-.074 0-.145.022-.215.066l.109.272zm-.486.6l.337-.429-.167-.215-.337.429.167.215zm-.684.504l.083.009c.118 0 .241-.057.333-.175l.096-.123-.166-.215-.096.123c-.048.061-.11.088-.167.088l-.044-.004-.039.298zm-.465-.811l.101.399c.022.083.053.158.096.219l.175-.201-.048-.11-.101-.399-.224.092zm-.307-.539c.101 0 .193.079.224.21l.009.035.224-.092-.009-.035c-.066-.258-.25-.421-.447-.421v.302zm-.596.346l.425-.272-.105-.272-.425.272.105.272zm-.789-.044c.088.145.224.232.373.237.066 0 .131-.018.197-.053l-.096-.276-.101.026c-.075 0-.145-.044-.188-.118l-.184.184zm-.013-.999l-.075.521-.009.105.237.004.004-.053.075-.521-.232-.057zm-.075-.657c.075.052.123.153.123.263l-.004.061.118.026-.118-.026-.004.035.232.057.004-.035v-.004l.009-.11c0-.232-.101-.429-.245-.53l-.114.263zm-.609.136l.053-.013.377-.145.026-.009-.044-.298-.053.017-.377.145.035.145-.031-.145-.026.009.039.294zm-.539-.754l-.018.158c0 .228.101.429.25.53l.114-.267c-.075-.053-.127-.158-.127-.267l.009-.079-.228-.075zm.241-.828l-.018.088.11.053-.11-.057-.14.443.219.114.14-.443c.018-.057.026-.114.031-.166l-.232-.031zm-.333-.311l.048-.013.048-.009c.083 0 .153.057.197.14l.197-.167c-.083-.162-.228-.272-.394-.272l-.096.013-.048.013.048.294zm-.741.162l.057.004.096-.013.35-.092-.048-.294-.351.092.022.149-.022-.149-.053.004-.031-.004-.022.302zm-.394-.868l-.018.206-.004.07a.68.68 0 0 0 .136.421l.166-.21c-.044-.057-.07-.127-.07-.21v-.035l.018-.206-.228-.035zm.039-.824l.022.127v.039l.118.013-.118-.018-.031.359.237.035.031-.359v-.004l.004-.066c0-.088-.018-.175-.044-.25l-.219.123zm-.5-.114l.241-.057.044-.004.105.035.11-.267c-.066-.044-.136-.066-.215-.066l-.088.009-.241.057.044.294zm-.784-.079a.43.43 0 0 0 .333.175l.083-.009h.004l.131-.031-.044-.298-.131.031.022.149-.018-.149-.048.004c-.066 0-.123-.035-.166-.088l-.166.215zm-.031-1.008l-.092.412c-.013.057-.017.114-.017.167l.004.07.232-.035v-.035l.009-.083.092-.412-.228-.083zm.07-.741c.031.053.048.114.048.18l-.009.088-.039.184.228.083.044-.188a.74.74 0 0 0 .018-.166.74.74 0 0 0-.092-.359l-.197.18zm-.57-.123h.381l.061.009.061-.289c-.039-.013-.083-.022-.123-.022h-.381v.302zm-.771-.184c.083.114.206.184.342.184h.188v-.302h-.188c-.07 0-.127-.035-.171-.092l-.171.21zm.026-1.008l-.118.346a.77.77 0 0 0-.039.241l.004.061.237-.031v-.031l.022-.118.118-.346-.224-.123zm-.074-.574c.088.044.149.158.149.28l-.004.044.232.044.004-.088c0-.245-.118-.469-.298-.561l-.083.281zm-.723-.166a.39.39 0 0 0 .311.145h.224v-.298h-.224c-.066 0-.114-.026-.153-.075l-.158.228zm.04-1.003l-.11.184c-.066.11-.096.237-.096.359l.009.118.232-.057-.004-.057c0-.061.013-.123.048-.18l.11-.184-.188-.184zm-.127-.491c.109.035.18.162.18.294v.004l.237.004v-.004c0-.267-.066-.473-.368-.482l-.048.184z" fill="#84431a"/><path d="M49.95 50.62V37.563c0-2.178 1.687-3.808 3.01-4.851 4.934-3.786 5.048-7.195 5.403-8.746.342-1.49 1.157-1.889 1.582-1.801.644.136 1.433 1.038 1.433 1.038s3.12 8.028 3.725 10.608S67.6 48.925 67.6 48.925l-16.484 2.861-1.166-1.166z" fill="#ffb84a"/><path d="M27.756 46.926s.188-2.489 5.447-3.895 13.943-2.392 17.041-2.392 14.692 1.455 16.195 1.691 3.944.894 4.789 2.489.609 4.036.609 4.036-1.306-.811-4.263-1.231-13.995-1.63-17.422-1.63-13.754 1.363-15.63 1.595c-1.884.228-5.074 2.953-5.214 2.953s-1.551-3.615-1.551-3.615z" fill="#84431a"/><g fill="#c15a21"><path d="M71.872 46.321c-1.161-2.147-3.79-2.695-5.994-3.072-3.129-.53-6.284-.907-9.452-1.109-6.301-.407-12.65-.127-18.873.968-1.709.302-3.418.649-5.096 1.096-1.402.372-2.817.898-3.838 1.976-.241.259.145.644.386.39.903-.955 2.143-1.437 3.387-1.779 1.407-.39 2.848-.688 4.281-.964 3.019-.578 6.078-.955 9.145-1.152 6.13-.394 12.3-.07 18.369.855 1.411.215 2.848.407 4.206.854 1.218.399 2.375 1.052 3.002 2.213.171.311.644.035.478-.276z"/><path d="M71.872 47.623c-1.161-2.147-3.79-2.695-5.994-3.072-3.129-.53-6.284-.907-9.452-1.109-6.301-.408-12.65-.127-18.873.968-1.709.302-3.418.648-5.096 1.096-1.402.372-2.817.898-3.838 1.976-.241.259.145.644.386.39.903-.955 2.143-1.437 3.387-1.779 1.407-.39 2.848-.688 4.281-.964 3.019-.578 6.078-.955 9.145-1.152 6.13-.394 12.3-.07 18.369.855 1.411.215 2.848.407 4.206.854 1.218.399 2.375 1.052 3.002 2.213.171.311.644.035.478-.276z"/><path d="M71.872 48.894c-1.161-2.147-3.79-2.695-5.994-3.072-3.129-.53-6.284-.907-9.452-1.109-6.301-.408-12.65-.127-18.873.968-1.709.302-3.418.649-5.096 1.095-1.402.372-2.817.898-3.838 1.976-.241.258.145.644.386.39.903-.955 2.143-1.437 3.387-1.779 1.407-.39 2.848-.688 4.281-.964 3.019-.578 6.078-.955 9.145-1.152 6.13-.394 12.3-.07 18.369.854 1.411.215 2.848.407 4.206.855 1.218.399 2.375 1.052 3.002 2.213.171.307.644.035.478-.276z"/></g><g fill="#84431a"><path d="M38.995 41.41c-.245-.145-.618-.07-.749.197-.85 1.678-.968 3.698-.232 5.442.114.272.364.469.675.381.259-.07.5-.399.381-.675-.622-1.472-.605-3.164.123-4.596.136-.263.07-.596-.197-.749zm1.517-.259c-.245-.145-.618-.07-.749.197-.85 1.678-.968 3.698-.232 5.442.114.272.364.469.675.381.259-.07.5-.399.381-.675-.622-1.472-.605-3.164.123-4.597.136-.263.07-.596-.197-.749zm1.573-.114c-.245-.145-.618-.07-.749.197-.85 1.678-.968 3.698-.232 5.442.114.272.364.469.675.381.258-.07.499-.399.381-.675-.622-1.472-.605-3.164.123-4.597.136-.263.07-.596-.197-.749z"/><use xlink:href="#B"/><use xlink:href="#B" x="-1.516" y="-0.259"/><path d="M58.499 41.037c.245-.145.618-.07.749.197.85 1.678.968 3.698.232 5.442-.114.272-.364.469-.675.381-.259-.07-.5-.399-.381-.675.622-1.472.605-3.164-.123-4.597-.136-.263-.07-.596.197-.749z"/></g><g fill="#ff9f1b"><use xlink:href="#C"/><use xlink:href="#C" x="1.626" y="0.132"/><path d="M62.083 41.655c-.149-.32-.622-.04-.473.276.732 1.547.784 3.343.184 4.943-.123.329.403.473.53.145a6.91 6.91 0 0 0-.241-5.363zm-20.538-.341c.149-.32.622-.039.473.276-.732 1.547-.784 3.343-.184 4.943.123.329-.403.473-.53.145a6.91 6.91 0 0 1 .241-5.363zm-1.625.131c.149-.32.622-.039.473.276-.732 1.547-.784 3.343-.184 4.943.123.329-.403.473-.53.145-.653-1.74-.552-3.69.241-5.363zm-1.459.193c.149-.32.622-.04.473.276-.732 1.547-.784 3.343-.184 4.943.123.329-.403.473-.53.145-.653-1.735-.552-3.685.241-5.363z"/></g><path d="M95.634 45.082c-2.265-3.396-4.592-5.184-8.641-5.968-3.462-.666-6.297-.219-10.429 2.598-3.681 2.511-5.504 5.004-11.989 7.002-.504.158-1.017.289-1.534.403-.543.123-1.091.228-1.643.32a36.9 36.9 0 0 1-1.7.245 56.52 56.52 0 0 1-1.709.18l-1.665.123-1.573.079-1.433.039c-.771.013-1.538.009-2.309.004-.78-.004-1.555-.004-2.335 0l-1.187.009h-.127c-.184 0-.368-.004-.552-.009l-1.393-.035-1.538-.07-1.634-.114-1.683-.166a37.04 37.04 0 0 1-1.683-.232c-.548-.088-1.091-.184-1.635-.302a22.43 22.43 0 0 1-1.534-.381c-.096-.026-.188-.057-.285-.083-6.485-1.998-8.308-4.491-11.989-7.002-4.132-2.818-6.967-3.269-10.429-2.599-4.049.78-6.371 2.572-8.641 5.968s3.838 6.029 3.838 6.029L30.639 65.23l19.363-1.038 19.35 1.038 22.439-14.118s6.108-2.638 3.843-6.029z" fill="#e17400"/><path d="M14.882 39.136c-.075-.11-.127-.066-.127-.193l-.004-.066-.408.035v.031c0 .219.079.254.206.434l.333-.241zm.526.254h-.039a.57.57 0 0 1-.342-.109l-.241.333c.162.118.359.188.583.188h.066l-.026-.412zm.784-.162l-.066.013.048.202-.044-.202-.486.105.088.403.486-.105h.004l.035-.009-.066-.407zm.925.333a1 1 0 0 0-.583-.329l-.075.403a.64.64 0 0 1 .351.197l.307-.272zm.294.876l-.044-.333c-.013-.088-.035-.171-.066-.25l-.381.158c.018.048.035.096.04.149l.044.333.407-.057zm.118.758c-.018-.048-.031-.096-.039-.149l-.044-.337-.407.057.044.337c.013.088.035.171.066.25l.381-.158zm.46.372a.62.62 0 0 1-.351-.202l-.311.272c.149.171.355.289.583.333l.079-.403zm.732-.092l-.513.096-.018.004.061.407.035-.004.513-.096-.079-.407zm.806-.149l-.539.101.075.403.539-.101-.075-.403zm.811-.149l-.539.101.075.403.539-.101-.075-.403zm.925.013a1.01 1.01 0 0 0-.425-.092.99.99 0 0 0-.193.017l.039.202-.039-.202-.044.009.075.403.044-.009h.004l.11-.009a.63.63 0 0 1 .254.057l.175-.377zm.587.789a1.02 1.02 0 0 0-.307-.596l-.285.298a.62.62 0 0 1 .184.359l.407-.061zm.079.828l-.048-.543-.412.035.048.543.412-.035zm.07.819l-.048-.543-.412.035.048.543.412-.035zm.079.776l-.022-.123-.035-.381-.408.035.035.381a.77.77 0 0 0 .039.202l.39-.114zm.421.412c-.131-.039-.25-.123-.329-.232l-.333.241c.136.184.329.324.548.386l.114-.394zm.705-.079l-.407.088-.096.013.022.412c.053-.004.11-.009.162-.022l.408-.088-.088-.403zm.802-.175l-.535.118.088.403.535-.118-.088-.403zm.802-.175l-.535.118.088.403.535-.118-.088-.403zm.929-.004a1.05 1.05 0 0 0-.408-.083c-.07 0-.145.009-.223.026l.048.202-.044-.202-.035.009.088.403.035-.009h.004l.127-.013c.083 0 .166.017.241.053l.167-.386zm.605.762l-.009-.048c-.048-.21-.158-.394-.307-.53l-.276.302a.63.63 0 0 1 .184.32l.009.048.399-.092zm.18.802l-.118-.535-.403.092.118.535.403-.092zm.18.802l-.118-.535-.403.092.118.535.403-.092zm.215.692a.65.65 0 0 1-.11-.237l-.044-.193-.403.092.044.193a1.02 1.02 0 0 0 .184.394l.329-.25zm.539.241h-.053a.6.6 0 0 1-.337-.101l-.228.342a1.01 1.01 0 0 0 .565.171l.083-.004-.031-.407zm.793-.131l-.539.092.066.407.539-.092-.066-.407zm.806-.132l-.539.092.066.407.539-.092-.066-.408zm.832-.136l-.114.013.035.202-.035-.202-.451.075.066.407.451-.075h.004l.061-.009-.017-.412zm.889.425a1.02 1.02 0 0 0-.548-.386l-.114.394a.61.61 0 0 1 .329.232l.333-.241zm.337.806L30.924 48l-.386.14.188.513.386-.14zm.281.771l-.189-.513-.386.14.189.513.386-.14zm.386.491a.62.62 0 0 1-.302-.267l-.359.202a1.02 1.02 0 0 0 .504.447l.158-.381zm.662-.053l-.245.075c-.061.018-.118.026-.18.026h-.035l-.026.412h.061a1.02 1.02 0 0 0 .298-.044l.245-.075-.118-.394zm.784-.237l-.526.158.118.394.526-.158-.118-.394zm.784-.241l-.526.158.118.394.526-.158-.118-.394zm.92-.101c-.092-.026-.193-.044-.289-.044s-.197.013-.298.044l-.066.022.118.394.066-.022c.057-.017.114-.026.175-.026s.118.009.175.026l.118-.394zm.714.583l-.228-.267a1.09 1.09 0 0 0-.18-.166l-.241.333.11.101.228.267.311-.267zm.535.622l-.355-.416-.311.267.355.416.311-.267zm.535.622l-.355-.416-.311.267.355.416.311-.267zm.535.364a.61.61 0 0 1-.364-.171l-.285.294c.166.162.386.263.609.285l.039-.408zm.64-.232l-.28.153a.78.78 0 0 1-.158.061l.092.399a1.22 1.22 0 0 0 .267-.101l.281-.153-.202-.359zm.719-.399l-.478.267.202.359.478-.267-.202-.359zm.745-.403l-.123.057-.381.215.202.359.381-.215.075-.035-.153-.381zm.977.127c-.175-.127-.39-.197-.6-.197h-.039l.018.412h.026a.6.6 0 0 1 .359.118l.237-.333zm.587.631l-.359-.412-.311.272.359.412.311-.272zm.53.605l-.035-.035-.316-.359-.311.272.316.359.057.061.289-.298zm.57.158l-.14.018c-.088 0-.18-.022-.259-.057l-.175.372a1.06 1.06 0 0 0 .434.096 1.02 1.02 0 0 0 .232-.026l-.092-.403zm.662-.364l-.469.28.21.351.469-.28-.21-.351zm.701-.421l-.469.28.21.351.473-.281-.215-.35zm.767-.421a1.09 1.09 0 0 0-.245.105l-.285.171.21.355.285-.171a.7.7 0 0 1 .145-.066l-.11-.394zm.96.215c-.175-.153-.399-.241-.622-.254l-.022.412a.6.6 0 0 1 .373.153l.272-.311zm.6.57l-.399-.377-.285.298.399.377.285-.298zm.565.464a.58.58 0 0 1-.215-.131l-.153-.145-.285.298.153.145a.96.96 0 0 0 .359.219l.14-.386zm.583-.092c-.109.083-.241.127-.372.127h-.009l-.004.412h.013a1.04 1.04 0 0 0 .627-.21l-.254-.329zm.578-.596c-.088.057-.166.127-.237.21l-.188.224.316.263.188-.228a.75.75 0 0 1 .14-.127l-.219-.342zm.986-.066c-.136-.061-.285-.096-.429-.096-.079 0-.158.009-.237.026l.096.399.145-.017a.6.6 0 0 1 .258.057l.166-.368zm.64.64l-.263-.337-.096-.109-.285.294.057.066.263.337.324-.25zm.526.32a.59.59 0 0 1-.372-.145l-.267.311a1.03 1.03 0 0 0 .627.245l.013-.412zm.53-.258a.62.62 0 0 1-.324.237l.118.394c.21-.061.407-.197.543-.394l-.337-.237zm.592-.684a1.02 1.02 0 0 0-.39.359l-.066.101.346.219.066-.101a.61.61 0 0 1 .232-.215l-.188-.364zm.986.017c-.158-.092-.333-.136-.508-.136a.88.88 0 0 0-.153.013l.061.407.092-.009a.61.61 0 0 1 .302.079l.206-.355zm.631.605l-.004-.004-.372-.39-.298.285.373.39.009.009.294-.289zm.565.175l-.123.013c-.096 0-.193-.022-.276-.066l-.184.368a1 1 0 0 0 .465.109.79.79 0 0 0 .202-.022l-.083-.403zm.561-.403l-.263.25-.11.083.21.355a.93.93 0 0 0 .184-.14l.263-.25-.285-.298zm.596-.565l-.399.377.285.298.399-.377-.285-.298zm.881-.377h-.07c-.202 0-.407.061-.578.18l.232.337a.61.61 0 0 1 .346-.105h.044l.026-.412zm.828.364l-.373-.223-.127-.066-.162.377.075.039.373.224.215-.351zm.705.425l-.469-.28-.21.35.469.28.21-.35zm.688.407l-.053-.026-.399-.241-.21.355.399.241.088.048.175-.377zm.587-.035c-.096.061-.21.092-.324.092l-.066-.004-.044.407.11.004a1.04 1.04 0 0 0 .543-.153l-.219-.346zm.517-.552l-.359.412.311.272.359-.412-.311-.272zm.543-.618l-.009.009-.355.403.311.272.355-.403.004-.004-.307-.276zm.929-.329a1.06 1.06 0 0 0-.166-.013 1.03 1.03 0 0 0-.495.127l.202.359a.59.59 0 0 1 .298-.079l.096.009.066-.403zm.802.377l-.469-.263-.009-.004-.197.359.004.004.469.263.202-.359zm.719.399l-.478-.267-.202.359.478.267.202-.359zm.662.315a.59.59 0 0 1-.232-.074l-.193-.105-.202.359.193.105a.97.97 0 0 0 .39.123l.044-.408zm.548-.232l-.018.022c-.088.101-.202.166-.329.197l.092.399c.206-.048.399-.158.548-.329l.017-.022-.311-.267zm.539-.622l-.355.416.311.267.355-.416-.311-.267zm.535-.622l-.355.416.311.267.355-.416-.311-.267zm.627-.631c-.105.057-.201.136-.285.232l-.162.188.311.267.162-.193a.59.59 0 0 1 .171-.14l-.197-.355zm.951-.031l-.162-.048a.98.98 0 0 0-.298-.044 1.13 1.13 0 0 0-.171.013l.07.403.101-.009a.66.66 0 0 1 .18.026l.162.048.118-.39zm.784.237l-.526-.158-.118.394.521.158.123-.394zm.784.237l-.521-.158-.118.394.521.158.118-.394zm.701.145l-.11.009c-.057 0-.118-.009-.18-.026l-.149-.044-.118.394.149.044a.98.98 0 0 0 .298.044.88.88 0 0 0 .184-.017l-.074-.403zm.46-.373a.6.6 0 0 1-.267.302l.202.359a1.02 1.02 0 0 0 .443-.504l-.377-.158zm.276-.762l-.188.513.386.14.188-.513-.386-.14zm.289-.784l-.026.061-.171.464.386.14.171-.465.013-.035-.372-.166zm.78-.6a1.02 1.02 0 0 0-.592.316l.302.28a.61.61 0 0 1 .355-.188l-.066-.407zm.876.092l-.539-.092-.07.407.539.092.07-.407zm.811.136l-.543-.092-.066.408.539.092.07-.407zm.806.136l-.539-.092-.066.407.539.092.066-.408zm.605-.123a.65.65 0 0 1-.372.149l.017.412a1.03 1.03 0 0 0 .627-.245l-.272-.316zm.267-.618l-.066.289c-.013.061-.04.123-.07.175l.355.206a.95.95 0 0 0 .114-.294l.066-.289-.399-.088zm.18-.802l-.118.535.403.092.118-.535-.403-.092zm.18-.802l-.118.535.403.092.118-.535-.403-.092zm.451-.828a1.04 1.04 0 0 0-.39.548l.394.114c.039-.136.123-.25.232-.329l-.237-.333zm.947-.136l-.131-.031a.91.91 0 0 0-.219-.022c-.101 0-.197.013-.289.044l.118.394a.58.58 0 0 1 .171-.026l.131.013.131.031.088-.403zm.802.175l-.535-.118-.088.403.534.118.088-.403zm.802.175l-.535-.118-.088.403.535.118.088-.403zm.749.136h-.039l-.132-.013-.311-.066-.088.403.311.066a1.2 1.2 0 0 0 .219.022h.066l-.026-.412zm.5-.316a.64.64 0 0 1-.298.272l.162.377a1.02 1.02 0 0 0 .5-.451l-.364-.197zm.114-.723l-.044.478-.004.048.407.07.009-.083.044-.482-.412-.031zm.07-.815l-.048.543.412.035.048-.543-.412-.035zm.075-.819l-.048.543.412.035.048-.543-.412-.035zm.421-.859a1.04 1.04 0 0 0-.377.556l.399.105a.63.63 0 0 1 .223-.333l-.245-.329zm.942-.162l-.14-.026a.92.92 0 0 0-.188-.017 1.07 1.07 0 0 0-.311.048l.123.39a.65.65 0 0 1 .184-.031l.114.013.145.026.075-.403zm.806.149l-.539-.101-.075.403.539.101.075-.403zm.806.149l-.539-.101-.075.403.539.101.075-.403zm.775.14l-.096-.009-.416-.079-.075.403.416.075a1.82 1.82 0 0 0 .153.017l.017-.407zm.526-.272a.64.64 0 0 1-.324.241l.123.394c.219-.07.407-.21.539-.399l-.338-.237zm.158-.697l-.057.438-.017.079.399.105.026-.132.057-.438-.407-.053zm.193-.872c-.061.109-.101.232-.118.364l-.031.237.407.057.031-.237a.61.61 0 0 1 .07-.219l-.359-.202zm.832-.526a1.02 1.02 0 0 0-.622.259l.272.307a.6.6 0 0 1 .372-.153l-.022-.412zm.859.153l-.535-.118-.088.403.534.118.088-.403zm.583-.136a.54.54 0 0 1-.364.153l.022.412c.245-.013.46-.114.622-.263l-.28-.302zm.228-.39l.009.092c0 .105-.057.044-.11.136l.359.197c.083-.153.136-.149.136-.329 0-.053-.009-.035-.018-.088l-.377-.009zm11.094 6.243c-3.041-4.908-7.642-5.004-10.595-3.909s-5.407 4.605-14.061 8.518c-7.353 3.326-14.425 3.865-20.949 3.865s-13.663-.539-21.02-3.865c-8.65-3.913-11.103-7.423-14.057-8.518s-7.554-.995-10.595 3.909S2.946 61.111 8.27 68.823c1.709 2.48 3.957 4.347 6.213 5.74 4.11 2.537 8.891 3.768 13.72 3.768h43.599c4.829 0 9.609-1.231 13.72-3.768 2.257-1.393 4.5-3.26 6.213-5.74 5.32-7.716 6.945-18.838 3.904-23.741z" fill="#ffb84a"/><path d="M69.317 62.294c-4.465 1.516-11.55 2.493-19.534 2.493-8.084 0-15.253-1.008-19.705-2.555-3.225 2.068-4.75 4.382-4.75 5.942 0 3.462 10.95 6.266 24.455 6.266s24.455-2.804 24.455-6.266c0-1.547-1.652-3.83-4.921-5.88z" fill="#e17400"/><path d="M69.316 62.294c-4.049-2.546-10.582-4.745-19.534-4.745-9.32 0-15.774 2.165-19.705 4.684 4.452 1.551 11.616 2.555 19.705 2.555 7.984 0 15.069-.981 19.534-2.493z" fill="#c15a21"/><defs ><path id="B" d="M61.588 41.41c.245-.145.618-.07.749.197.85 1.678.968 3.698.232 5.442-.114.272-.364.469-.675.381-.259-.07-.5-.399-.381-.675.622-1.472.605-3.164-.123-4.596-.136-.263-.07-.596.197-.749z"/><path id="C" d="M58.998 41.326c-.149-.32-.622-.039-.473.276.732 1.547.784 3.343.184 4.943-.123.329.403.473.53.145a6.91 6.91 0 0 0-.241-5.363z"/></defs></svg>