<svg xmlns="http://www.w3.org/2000/svg" width="100" height="101" fill="none" xmlns:v="https://vecta.io/nano"><path d="M61.249 16.608l-.592-.508c-.112-.089-.212-.19-.285-.29a8.36 8.36 0 0 0-.156-.993l.056-.145c.033-.073.078-.151.123-.223l.229-.357.112-.19c.039-.061.072-.128.106-.19a1.23 1.23 0 0 0 .14-.502c0-.167-.033-.34-.1-.497a1.12 1.12 0 0 0-.765-.636l-.497-.106-.497-.078c-.072-.011-.139-.028-.206-.045a10.25 10.25 0 0 0-.809-1.044c0-.067 0-.139.011-.212l.05-.497.028-.508c.006-.179-.034-.346-.1-.502-.067-.151-.173-.285-.296-.391s-.273-.184-.435-.223a1.08 1.08 0 0 0-.502-.011l-.686.162a1.22 1.22 0 0 1-.419.045c-.067-.006-.128-.011-.19-.028-.033-.011-.073-.017-.106-.028-.034-.022-.067-.039-.1-.056a1.29 1.29 0 0 1-.206-.48l-.168-.681c-.072-.273-.245-.497-.458-.642-.112-.067-.229-.117-.357-.151-.061-.017-.128-.022-.19-.028-.067 0-.134 0-.195.011a1.08 1.08 0 0 0-.731.134l-.458.279c-.162.1-.324.162-.486.184l-.72-.179-.089-.089c-.061-.067-.117-.145-.168-.229l-.441-.725a1.09 1.09 0 0 0-1.635-.246c-.05.039-.106.078-.151.134l-.519.564a1.37 1.37 0 0 1-.313.262l-.999.05c-.117-.056-.234-.128-.34-.229l-.312-.29-.324-.279c-.151-.123-.324-.212-.497-.246a1.19 1.19 0 0 0-.525.022 1.1 1.1 0 0 0-.848.614l-.307.664c-.095.212-.229.38-.391.502l-.547.207a1.29 1.29 0 0 1-.709-.162l-.251-.123c-.128-.067-.262-.112-.396-.128-.134-.011-.262-.006-.391.028-.29-.033-.564.061-.787.229-.112.084-.201.195-.274.318s-.123.262-.139.413l-.072.659-.028.536-.363.296c-.011.006-.022.006-.033.011-.145.039-.312.05-.48.034l-.703-.056c-.179-.006-.346.028-.502.089a.88.88 0 0 0-.212.123c-.067.05-.128.106-.178.167-.112.123-.184.273-.229.435a1.06 1.06 0 0 0-.011.513l.084.38.045.184.05.184a1.35 1.35 0 0 1 .05.413c-.173.285-.329.575-.463.876-.106.072-.229.139-.368.184l-.407.145-.396.167c-.084.039-.162.084-.229.134-.073.05-.128.117-.184.179-.056.067-.1.14-.139.218-.017.039-.039.078-.05.117-.017.039-.022.084-.033.123-.034.167-.045.34-.006.508s.117.329.229.469l.078.101.084.1.173.19.346.357c.056.05.1.106.145.156l-.006.307a8.7 8.7 0 0 0 .062 1.01c-.039.061-.078.117-.128.173l-.162.19-.156.195-.151.206-.145.212a1.15 1.15 0 0 0 .558 1.708l.681.212c.184.05.34.123.469.223.056.045.106.089.156.14l.218.357c.089.246.1.53.006.837l-.05.173c-.106.368-.022.742.201 1.01.106.134.251.24.407.313a1.12 1.12 0 0 0 .53.084l.536-.061c.173-.028.34-.017.486.022.011.006.028.006.039.011l.631.48c.006.011.017.022.022.034a1.28 1.28 0 0 1 .095.218c.028.078.045.156.056.246.05.246.14.502.273.787.095.218.251.407.441.58a2.77 2.77 0 0 0 .625.43c.218.106.435.179.619.195h.017.006l.005-.011c.006-.017.011-.034.022-.05.011-.034.028-.067.039-.1.028-.067.05-.134.067-.201a3.42 3.42 0 0 0 .095-.413c.061-.402.095-.765.089-1.094a3.34 3.34 0 0 1 .034-.502l.575-.809a1.12 1.12 0 0 1 .396-.106l.837-.073a1.02 1.02 0 0 0 .938-1.323l-.246-.954c-.017-.073-.028-.145-.033-.212l.759-1.072c.067-.017.14-.034.212-.039l.982-.084a1.02 1.02 0 0 0 .938-1.323l-.123-.48.586.067c.19.022.352.084.491.173l.435.659a1.18 1.18 0 0 1-.028.519l-.19.664a1.02 1.02 0 0 0 .898 1.351l.748.084a1.13 1.13 0 0 1 .396.117l.547.826c.011.128-.006.268-.045.407l-.234.804c-.095.335-.045.653.117.899.084.123.19.229.324.307l.011.006.017.017c.011.011.022.017.034.028l.073.05c.045.033.095.061.14.089.095.056.19.095.285.112.357.084.664.095.921.028.056-.017.112-.022.162-.028l.251.374.781-.38c.05.022.106.05.162.084a1.7 1.7 0 0 0 .201.106c.073.034.145.061.229.084.162.05.346.095.541.123.028.006.05.006.078.006h.039c.011 0 .028 0 .039.006l.128.017c.084.006.167 0 .251-.011.162-.028.318-.089.452-.19.067-.05.128-.1.184-.162s.1-.128.145-.201c.084-.145.128-.313.139-.491l.017-.737c0-.184.028-.357.089-.502l.05-.117.402-.419c.061-.039.128-.067.201-.095a1.12 1.12 0 0 1 .245-.061c.084-.011.173-.017.268-.017l.29.006a1.17 1.17 0 0 0 .525-.123c.151-.084.29-.195.385-.335a1.11 1.11 0 0 0 .14-1.01l-.207-.53a1.27 1.27 0 0 1-.112-.474v-.039c.106-.246.195-.491.273-.748.006-.011.017-.017.022-.028a1.35 1.35 0 0 1 .396-.29l.313-.162.313-.179c.307-.19.502-.502.53-.843.028-.329-.095-.681-.357-.932z" fill="#f80847"/><path d="M69.408 27.921c-5.374-7.166-16.291-10.475-20.437-10.475s-15.063 3.31-20.437 10.476-7.774 13.907-7.774 13.907l28.211.139 28.211-.14s-2.4-6.742-7.774-13.907z" fill="#fdc4d3"/><g fill="#ff9ea6"><path d="M69.581 27.792c-1.362-1.814-3.07-3.376-4.928-4.705-2.79-1.992-5.916-3.454-8.745-4.42-1.412-.48-2.751-.843-3.934-1.077-1.183-.24-2.21-.357-3.008-.357-1.066 0-2.534.212-4.241.636-2.556.636-5.625 1.764-8.567 3.404-2.947 1.641-5.765 3.801-7.802 6.524-5.396 7.194-7.802 13.952-7.807 13.963l.407.145v-.006c.067-.195 2.472-6.82 7.746-13.846 1.328-1.769 3.002-3.304 4.833-4.615 2.545-1.819 5.385-3.192 8.008-4.141-1.496.692-3.041 1.563-4.526 2.623-2.182 1.551-4.225 3.505-5.754 5.888-4.626 7.194-6.686 13.947-6.691 13.963l.413.128v-.006c.061-.195 2.121-6.82 6.641-13.846 2.277-3.538 5.737-6.139 9.069-7.847a28.4 28.4 0 0 1 2.534-1.144 23.04 23.04 0 0 0-4.258 2.885c-1.819 1.557-3.521 3.51-4.799 5.888-3.856 7.194-5.569 13.946-5.575 13.958l.419.106c.106-.407 1.83-6.937 5.536-13.857 1.897-3.544 4.777-6.133 7.551-7.841.904-.558 1.797-1.021 2.64-1.39-1.239.765-2.567 1.808-3.823 3.153-1.457 1.557-2.818 3.516-3.84 5.893-3.081 7.188-4.453 13.941-4.459 13.947l.424.089c.089-.413 1.468-6.943 4.431-13.863 1.518-3.544 3.823-6.133 6.038-7.841a16.03 16.03 0 0 1 2.573-1.63c-1.027.781-2.154 1.92-3.22 3.432-1.094 1.557-2.115 3.516-2.88 5.888-2.31 7.188-3.337 13.935-3.343 13.941l.43.067c.067-.413 1.099-6.948 3.326-13.868 1.144-3.549 2.868-6.139 4.526-7.841.809-.826 1.596-1.446 2.288-1.853l-.19.201c-.709.787-1.485 1.948-2.21 3.505s-1.406 3.51-1.914 5.877a145.05 145.05 0 0 0-2.227 13.93l.43.045s0-.028.005-.078a143.78 143.78 0 0 1 2.21-13.807c.764-3.561 1.92-6.156 3.019-7.852.553-.848 1.088-1.473 1.551-1.875.073-.067.145-.123.212-.173-.162.296-.329.664-.502 1.127-.324.848-.658 1.987-.971 3.438-.312 1.445-.603 3.198-.826 5.274-.77 7.171-1.11 13.919-1.11 13.919l.435.022s0-.028.006-.078a280.52 280.52 0 0 1 1.105-13.818c.385-3.572.96-6.178 1.518-7.88.279-.854.547-1.479.776-1.881a2.58 2.58 0 0 1 .195-.301v10.034 13.907h.435V27.949v-7.925-1.92-.19c.039.05.078.112.123.179.173.273.368.686.58 1.233.313.82.647 1.942.96 3.382s.603 3.187.826 5.268c.385 3.577.659 7.054.843 9.632l.201 3.097.05.859.011.223a.44.44 0 0 0 .006.078l.435-.022s-.341-6.747-1.111-13.919c-.385-3.594-.971-6.228-1.535-7.969-.262-.809-.525-1.429-.759-1.864.234.179.491.419.765.726.67.748 1.429 1.875 2.143 3.399s1.384 3.443 1.881 5.782c.765 3.577 1.323 7.049 1.686 9.627l.402 3.097.1.859.022.223a.8.8 0 0 1 .005.078l.43-.045a145.05 145.05 0 0 0-2.227-13.93c-.776-3.605-1.948-6.251-3.081-7.997-.424-.647-.837-1.177-1.233-1.585a9.45 9.45 0 0 1 .781.519c1.01.753 2.149 1.881 3.215 3.404s2.071 3.438 2.819 5.771c1.15 3.572 1.981 7.043 2.523 9.621.273 1.289.474 2.35.603 3.092l.145.859.039.223c.006.028.006.045.011.056l.435-.05a101.38 101.38 0 0 0-3.343-13.941c-1.161-3.616-2.924-6.262-4.627-8.008-.497-.513-.993-.943-1.462-1.306a13.55 13.55 0 0 1 .553.29c1.356.759 2.874 1.886 4.297 3.41a19.98 19.98 0 0 1 3.756 5.765c1.529 3.572 2.64 7.037 3.365 9.616a72.44 72.44 0 0 1 .804 3.092l.195.86.05.223c.006.028.011.045.011.056l.43-.073c0-.011-1.373-6.758-4.459-13.946-1.551-3.622-3.907-6.267-6.172-8.014-.508-.391-1.005-.731-1.496-1.032.033.017.072.034.106.045 1.702.759 3.605 1.892 5.386 3.421 1.786 1.523 3.455 3.443 4.699 5.765 1.914 3.572 3.298 7.037 4.203 9.61.452 1.289.787 2.349 1.005 3.092.112.368.19.659.246.86.028.1.045.173.061.223.006.028.011.045.017.056l.424-.089c-.006-.011-1.719-6.764-5.576-13.958-1.942-3.628-4.883-6.267-7.707-8.008-.452-.279-.904-.536-1.345-.764 1.909.753 3.99 1.825 5.955 3.226 2.143 1.529 4.147 3.443 5.642 5.77 2.294 3.572 3.957 7.037 5.045 9.61.541 1.284.943 2.349 1.206 3.086.134.368.229.658.296.854l.072.223c.006.028.011.045.017.056l.006.022.413-.128c-.006-.011-2.065-6.764-6.692-13.963-2.333-3.628-5.855-6.267-9.236-8.003-.346-.178-.692-.346-1.038-.508 1.68.608 3.449 1.39 5.168 2.349 2.908 1.618 5.676 3.75 7.668 6.407a61.66 61.66 0 0 1 5.882 9.604c.636 1.284 1.1 2.349 1.407 3.086a20.13 20.13 0 0 1 .34.854l.084.223c.011.028.017.045.022.056l.006.022.407-.145c.039-.028-2.366-6.781-7.763-13.974z"/><path d="M82.072 49.781l1.719-.447-.552-.586-.273-.285-.29-.274c-.106-.095-.201-.218-.279-.352-.006-.006-.006-.017-.011-.022l-.341-.854c-.034-.173-.039-.329-.034-.469l.022-.564c.005-.145-.011-.301-.05-.458a2.33 2.33 0 0 0-.19-.458 2.15 2.15 0 0 0-.279-.413c-.106-.123-.229-.223-.346-.296l-.53-.324a.85.85 0 0 1-.089-.061l-.089-.067c-.039-.028-.078-.061-.112-.095l-.631-.932c-.045-.117-.078-.234-.095-.352l-.05-.34-.061-.335c-.022-.139-.078-.285-.145-.43-.073-.145-.156-.29-.268-.413-.218-.257-.48-.474-.742-.575l-.759-.279c-.056-.022-.112-.045-.167-.078l-1.021-1.06c-.028-.056-.05-.112-.067-.167l-.251-.765c-.045-.134-.117-.268-.212-.402-.095-.128-.201-.257-.329-.368-.251-.218-.541-.391-.82-.458l-.575-.123c-.145-.033-.296-.089-.441-.167a.72.72 0 0 1-.112-.061l-.508-.407-.151-.173c-.1-.128-.179-.262-.229-.396l-.078-.201c-.207-.536-.91-1.072-1.501-1.139l-.452-.056c-.151-.017-.312-.061-.469-.128l-.748-.491c-.123-.117-.223-.246-.301-.38l-.279-.486c-.14-.245-.391-.474-.675-.647s-.603-.279-.887-.29l-.62-.017a1.74 1.74 0 0 1-.368-.056l-.971-.53c-.095-.089-.179-.184-.246-.279l-.391-.564c-.329-.463-1.066-.832-1.635-.798l-.804.05a.95.95 0 0 1-.179 0l-1.367-.558a1.39 1.39 0 0 1-.128-.128l-.268-.301-.273-.296a2.09 2.09 0 0 0-1.741-.558l-.558.117c-.201.039-.435.045-.67.011l-.151-.039c-.151-.073-.29-.162-.402-.262l-.43-.368a2.02 2.02 0 0 0-.301-.201c-.112-.056-.234-.1-.363-.139-.257-.073-.53-.106-.781-.084-.251-.017-.491 0-.698.073l-.407.145a1.88 1.88 0 0 1-.48.089l-.809-.1-.112-.045a1.7 1.7 0 0 1-.223-.117l-.575-.374c-.229-.14-.536-.229-.854-.257-.318-.017-.642.017-.899.128l-.156.067-.553.285a1.71 1.71 0 0 1-.346.134l-1.111.039c-.128-.028-.251-.061-.357-.112l-.631-.273c-.145-.061-.313-.095-.491-.112l-.268-.011-.273.028c-.184.017-.363.05-.536.101-.167.056-.324.134-.452.223l-.474.346c-.151.117-.335.207-.536.268l-.659.123c-.24.011-.474-.017-.664-.084l-.206-.073c-.207-.073-.463-.089-.726-.061a2.21 2.21 0 0 0-.82.112c-.268.089-.514.229-.692.396l-.19.184-.19.19-.301.307-.497.162c-.167.022-.335.028-.486 0l-.558-.084c-.279-.034-.62.022-.926.14-.307.128-.592.318-.77.536l-.385.486a1.67 1.67 0 0 1-.262.262l-.145.067-.854.413a1.73 1.73 0 0 1-.374.039l-.686-.011c-.569-.011-1.295.38-1.607.86l-.435.675a2.57 2.57 0 0 1-.112.151l-1.261.748c-.061.011-.123.022-.184.022l-.804.056c-.285.022-.597.151-.876.329s-.513.424-.647.675l-.262.502c-.1.195-.257.374-.435.536l-.391.285a1.54 1.54 0 0 1-.29.14c-.151.061-.301.1-.447.112l-.134.011c-.145.011-.296.056-.447.117-.151.067-.301.156-.441.262s-.268.229-.38.357c-.106.134-.195.273-.251.413l-.162.402a1.82 1.82 0 0 1-.246.419l-.67.597c-.145.089-.296.156-.441.195l-.547.151c-.273.084-.558.268-.792.502-.229.24-.413.53-.491.804l-.156.603c-.028.112-.073.229-.134.346l-.72.848a1.91 1.91 0 0 1-.318.19l-.625.285a2.08 2.08 0 0 0-1.055 1.507l-.039.402-.022.402-.022.173-.72 1.295-.145.117-.647.486a2.05 2.05 0 0 0-.167.151 1.62 1.62 0 0 0-.145.184 2.37 2.37 0 0 0-.234.441c-.151.346-.151.726-.106 1.094.045.363.167.72.039 1.077-.039.112-.061.229-.089.34h.313l.017.084.53.139.061-.223 66.077-.001c.05.084.067.162.089.234z"/></g><path d="M82.931 49.557c-2.779-10.67-15.085-17.412-19.946-19.694s-9.984-3.175-14.013-3.175-9.153.893-14.013 3.176-17.167 9.025-19.946 19.695-3.549 22.826-3.549 22.826l9.292 3.398 28.211-8.628 28.211 8.627 9.292-3.399c.011 0-.759-12.155-3.539-22.826z" fill="#f80847"/><path d="M86.492 73.019v-.089c0-.061-.011-.117-.017-.179 0-.625-.335-1.25-.954-1.663l-.72-.463-.731-.435a2.92 2.92 0 0 1-.418-.29c-.084-.067-.162-.145-.234-.218a16.65 16.65 0 0 0-.558-1.797c.017-.095.045-.184.078-.279.05-.134.123-.273.201-.407l.352-.586.329-.603c.056-.106.101-.218.134-.329.1-.273.134-.564.089-.848-.022-.139-.061-.285-.112-.419-.056-.134-.128-.268-.212-.396l-.139-.184c-.05-.061-.106-.117-.162-.173-.117-.112-.24-.212-.38-.307-.285-.184-.603-.324-.954-.413l-.898-.201-.898-.173c-.212-.039-.413-.089-.603-.156l-.251-.1-1.044-1.099c-.117-.279-.167-.586-.14-.904l.061-.904c.006-.229-.034-.452-.117-.664a1.59 1.59 0 0 0-.156-.307 2.1 2.1 0 0 0-.212-.285c-.095-.223-.246-.43-.43-.619-.089-.095-.19-.184-.301-.262l-.352-.223c-.123-.067-.251-.128-.385-.179s-.279-.095-.424-.128c-.29-.067-.592-.1-.898-.084l-1.518.084a3.51 3.51 0 0 1-.642-.011 3.21 3.21 0 0 1-.525-.089l-.212-.128-.162-.156a2.93 2.93 0 0 1-.246-.29 1.91 1.91 0 0 1-.307-.686l-.301-1.161a1.63 1.63 0 0 0-.179-.419 2.01 2.01 0 0 0-.285-.374c-.112-.117-.234-.229-.374-.324s-.29-.184-.447-.257a3.52 3.52 0 0 0-.497-.19 3.44 3.44 0 0 0-.541-.106c-.184-.022-.368-.033-.558-.028-.184.005-.38.028-.564.067l-1.044.223-1.032.246c-.151.039-.307.061-.458.084l-2.863-1.016c-.084-.1-.156-.206-.223-.324l-.212-.385-.223-.38-.463-.765a2.3 2.3 0 0 0-.687-.686c-.285-.184-.614-.329-.965-.413-.179-.045-.357-.078-.541-.095a3.64 3.64 0 0 0-.553-.011 3.25 3.25 0 0 0-1.077.24l-.809.346-.798.352c-.273.123-.564.212-.854.262l-2.327-.374a2.61 2.61 0 0 1-.653-.502l-1.021-1.021c-.24-.229-.541-.413-.882-.541-.084-.034-.173-.061-.262-.089s-.184-.05-.279-.067a1.74 1.74 0 0 0-.201-.028l-.218-.017h-.039-.039l-.218.017a1.58 1.58 0 0 0-.201.028c-.095.017-.19.039-.279.067l-.262.089c-.34.128-.642.313-.882.541l-1.021 1.021c-.19.201-.413.368-.653.502l-2.327.374c-.29-.05-.58-.134-.854-.262l-.798-.352-.809-.346c-.34-.139-.709-.223-1.077-.24-.184-.011-.374-.006-.553.011-.184.017-.363.05-.541.095a3.12 3.12 0 0 0-.965.413c-.285.184-.519.419-.686.687l-.463.765-.223.38-.212.385a1.85 1.85 0 0 1-.223.324l-2.863 1.016c-.156-.017-.307-.045-.458-.084l-1.032-.245-1.044-.223c-.184-.039-.374-.061-.564-.067a3.74 3.74 0 0 0-.558.028c-.184.022-.363.061-.541.106a3.52 3.52 0 0 0-.497.19 3.21 3.21 0 0 0-.446.257c-.139.095-.262.206-.374.324a2.01 2.01 0 0 0-.285.374 1.63 1.63 0 0 0-.178.419l-.301 1.161a1.91 1.91 0 0 1-.307.687 2.05 2.05 0 0 1-.246.29c-.05.056-.106.106-.162.156l-.212.128a5.12 5.12 0 0 1-.525.089 4.07 4.07 0 0 1-.642.011l-1.518-.084c-.313-.017-.614.017-.899.084a3.7 3.7 0 0 0-.424.128c-.134.05-.262.112-.385.179s-.24.14-.352.223c-.112.078-.206.173-.301.262-.184.19-.329.391-.43.619-.078.089-.151.184-.212.285a1.76 1.76 0 0 0-.156.307c-.084.212-.123.435-.117.664l.061.904c.028.318-.022.625-.139.904l-1.044 1.099a2.36 2.36 0 0 1-.251.1c-.19.067-.396.117-.603.156l-.898.173-.899.201c-.357.084-.675.229-.954.413-.139.095-.262.195-.38.307l-.162.173-.14.184c-.084.128-.156.257-.212.396-.056.134-.089.279-.112.419a1.64 1.64 0 0 0 .089.848c.028.112.073.223.134.329l.329.603.352.586a2.51 2.51 0 0 1 .201.407c.034.095.061.184.078.279-.223.592-.407 1.194-.558 1.797-.072.078-.145.151-.234.218a2.93 2.93 0 0 1-.418.29l-.731.435-.72.463c-.62.413-.954 1.038-.954 1.663-.05.061-.061.123-.061.184v.089.089c0 .061.011.117.017.179 0 .625.335 1.25.954 1.663l.72.463.731.435c.151.089.296.184.419.29l.234.218c.151.603.335 1.2.558 1.797-.017.095-.045.184-.078.279-.05.134-.123.273-.201.407l-.352.586-.329.603c-.056.106-.1.218-.134.329-.1.273-.134.564-.089.848a2.21 2.21 0 0 0 .112.419c.056.134.128.268.212.396l.14.184c.05.061.106.117.162.173.117.112.24.212.38.307a3.19 3.19 0 0 0 .954.413l.899.201.898.173a3.97 3.97 0 0 1 .603.156l.251.1 1.044 1.099c.117.279.167.586.139.904l-.061.904c-.006.229.033.452.117.664.039.106.095.212.156.307.061.101.134.195.212.285.095.223.246.43.43.619a1.96 1.96 0 0 0 .301.262l.352.223c.123.067.251.128.385.179s.279.095.424.128a3.21 3.21 0 0 0 .898.084l1.518-.084c.218-.017.435-.011.642.011a3.23 3.23 0 0 1 .525.089l.212.128.162.156c.089.095.173.19.246.29a1.91 1.91 0 0 1 .307.687l.301 1.161c.039.145.1.285.179.418a2.01 2.01 0 0 0 .285.374c.112.117.234.229.374.324s.29.184.447.257.324.139.497.19a3.44 3.44 0 0 0 .541.106c.184.022.368.034.558.028.184-.006.38-.028.564-.067l1.044-.223 1.032-.246c.151-.039.307-.061.458-.084l2.863 1.016c.084.1.156.206.223.324l.212.385.223.379.463.764c.167.268.407.502.687.686.285.184.614.329.965.413.179.045.357.078.541.095s.368.022.553.011c.368-.017.737-.1 1.077-.24l.809-.346.798-.352a3.59 3.59 0 0 1 .854-.262l2.327.374c.246.134.463.301.653.502l1.021 1.021a2.61 2.61 0 0 0 .882.541c.084.034.173.061.262.089s.184.05.279.067a1.77 1.77 0 0 0 .201.028l.218.017h.039.039l.218-.017c.072-.005.151-.017.201-.028a2.25 2.25 0 0 0 .279-.067l.262-.089c.34-.128.636-.313.882-.541l1.021-1.021a2.87 2.87 0 0 1 .653-.502l2.327-.374c.29.05.58.134.854.262l.798.352.809.346a3.22 3.22 0 0 0 1.077.24c.184.011.374.005.553-.011.184-.017.363-.05.541-.095.352-.084.681-.234.965-.413.285-.184.519-.419.686-.686l.463-.765.223-.379.212-.385c.061-.117.14-.223.223-.324l2.863-1.016c.156.017.307.045.458.084l1.032.246 1.044.223a3.17 3.17 0 0 0 .564.067c.184.006.374-.005.558-.028s.363-.061.541-.106c.173-.05.34-.117.497-.19a3.86 3.86 0 0 0 .447-.257c.139-.095.262-.207.374-.324a2.01 2.01 0 0 0 .285-.374c.078-.134.139-.273.179-.419l.301-1.161a1.91 1.91 0 0 1 .307-.687c.073-.106.156-.201.246-.29.05-.056.106-.106.162-.156l.212-.128c.168-.039.346-.067.525-.089.206-.022.424-.022.642-.011l1.518.084a3.17 3.17 0 0 0 .899-.084 3.73 3.73 0 0 0 .424-.128c.134-.05.262-.112.385-.179a2.87 2.87 0 0 0 .352-.223c.112-.078.207-.167.301-.262a2.1 2.1 0 0 0 .43-.62 2.1 2.1 0 0 0 .212-.285 1.77 1.77 0 0 0 .156-.307c.084-.212.123-.435.117-.664l-.061-.904c-.028-.318.022-.625.139-.904l1.044-1.099c.084-.039.167-.073.251-.101a4.15 4.15 0 0 1 .603-.156l.898-.173.898-.201c.357-.084.675-.229.954-.413.139-.095.262-.195.379-.307l.162-.173.14-.184c.084-.128.156-.257.212-.396.056-.134.089-.279.112-.419.05-.279.011-.569-.089-.848-.028-.112-.073-.223-.134-.329l-.329-.603-.352-.586c-.078-.134-.151-.268-.201-.407-.033-.095-.061-.184-.078-.279a16.28 16.28 0 0 0 .558-1.797c.072-.078.145-.151.234-.218.123-.106.268-.201.419-.29l.731-.435.72-.463c.62-.413.954-1.038.954-1.663l.017-.179c.045-.034.045-.061.045-.095z" fill="#ff9ea6"/><path d="M15.012 58.069s2.014-15.822 3.002-16.196 1.362-.469 1.362-.469-1.97 6.797-4.364 16.664zm3.265-3.449s1.674-15.381 2.656-15.777 1.384-.391 1.384-.391-1.853 6.792-4.04 16.168zm3.404-3.237s1.339-14.94 2.305-15.359 1.406-.313 1.406-.313-1.73 6.781-3.711 15.671zm3.471-2.958s.999-14.499 1.953-14.94 1.429-.235 1.429-.235l-3.382 15.174zm3.461-2.623s.658-14.058 1.607-14.521 1.451-.156 1.451-.156l-3.058 14.678zm3.376-2.216s.318-13.617 1.255-14.103 1.473-.078 1.473-.078l-2.729 14.181zm3.214-1.758s-.017-13.176.904-13.684 1.496 0 1.496 0l-2.4 13.684zm3.014-1.233s-.358-12.735.558-13.266c.915-.525 1.518.084 1.518.084l-2.076 13.182zm2.763-.648s-.698-12.295.206-12.847 1.54.162 1.54.162L40.98 39.947zm42.102 19.872s-1.172-15.905-2.138-16.335-1.334-.541-1.334-.541 1.607 6.898 3.472 16.876zm-3.075-3.622s-.854-15.448-1.809-15.894-1.362-.463-1.362-.463 1.485 6.881 3.17 16.357zm-3.226-3.415s-.542-14.99-1.485-15.459-1.39-.391-1.39-.391a593.29 593.29 0 0 0 2.874 15.849zm-3.309-3.136s-.224-14.532-1.156-15.024-1.412-.312-1.412-.312l2.567 15.336zm-3.315-2.802s.089-14.075-.832-14.588-1.44-.234-1.44-.234l2.272 14.823zm-3.254-2.394s.407-13.617-.502-14.147-1.468-.156-1.468-.156l1.97 14.304zm-3.114-1.925s.72-13.16-.179-13.712-1.496-.078-1.496-.078l1.675 13.79zm-2.947-1.39s1.038-12.702.15-13.277-1.518 0-1.518 0l1.368 13.277zm-2.723-.792s1.35-12.244.48-12.836c-.876-.597-1.546.078-1.546.078l1.066 12.758zm-3.639-.798s1.35-12.244.48-12.836c-.876-.597-1.546.078-1.546.078l1.066 12.758zm-9.042-13.299l-.173 13.589s1.016-6.022 1.49-7.886.703-5.224.703-5.224-1.038-.804-2.02-.48zm3.533.441s.43 7.858 2.651 12.713c0 0-1.273-9.158-1.105-13.321-.006 0-.999-.14-1.546.608z" fill="#f9306e"/><path d="M78.166 69.666a5 5 0 0 1-.262-2.545l-.541-.223a4.97 4.97 0 0 1-1.691-1.245l-.815-.859c-.441-.435-.793-.954-1.049-1.518l-.056.117a7.47 7.47 0 0 0-.419 1.384h-.095l-.898.045c-.407.045-.809.112-1.183.207a4.96 4.96 0 0 0-1.39.569l-.195.117a4.71 4.71 0 0 0-.72.519l-.508.48-.022.022a7.09 7.09 0 0 0-.714.871 7.17 7.17 0 0 0-.614 1.06l-.229-.056a8.07 8.07 0 0 0-1.049-.184 5.14 5.14 0 0 0-.58-.034 5.05 5.05 0 0 0-1.814.341l-2.595.921c-.915.296-1.724.848-2.333 1.585-.201.24-.385.497-.547.759l-.028-.011-.034-.017c-.653-.296-1.351-.508-2.07-.636-.279-.05-.569-.072-.854-.072a5.38 5.38 0 0 0-.898.078l-2.121.341a5.04 5.04 0 0 0-1.752.586c-.396.223-.77.474-1.122.753a7.88 7.88 0 0 0-1.122-.753c-.541-.301-1.133-.502-1.752-.586l-2.121-.34c-.296-.056-.597-.078-.898-.078-.285 0-.569.022-.854.073a8.25 8.25 0 0 0-2.071.636l-.034.017-.028.011a7.04 7.04 0 0 0-.547-.759c-.608-.742-1.423-1.295-2.333-1.585l-2.595-.921c-.58-.223-1.194-.34-1.814-.34a4.99 4.99 0 0 0-.58.034 9.63 9.63 0 0 0-1.072.19l-.207.05c-.173-.368-.374-.72-.614-1.06a7.56 7.56 0 0 0-.714-.871l-.017-.022c-.156-.167-.324-.324-.508-.48a4.72 4.72 0 0 0-.72-.519l-.195-.117c-.435-.257-.904-.452-1.39-.569-.38-.095-.776-.162-1.194-.206l-.887-.045h-.095a6.71 6.71 0 0 0-.419-1.384l-.056-.117c-.257.564-.608 1.083-1.049 1.518l-.815.859a4.97 4.97 0 0 1-1.691 1.245l-.541.223a5.01 5.01 0 0 1-.262 2.545 12.03 12.03 0 0 0-.385 1.228 4.99 4.99 0 0 1-1.122 2.126 5.02 5.02 0 0 1 1.122 2.126 10.76 10.76 0 0 0 .385 1.228 5.01 5.01 0 0 1 .262 2.545l.552.229c.642.29 1.211.714 1.674 1.239l.815.859c.474.469.848 1.021 1.105 1.635.184.447.324.91.418 1.384h.095c.296 0 .597.017.887.045.418.045.82.112 1.194.207a4.96 4.96 0 0 1 1.39.569l.195.117a4.72 4.72 0 0 1 .72.519l.508.48.017.022c.179.19.447.48.714.871.234.335.441.692.614 1.06l.206-.05c.368-.089.72-.151 1.072-.19.195-.022.391-.034.58-.034.619 0 1.233.117 1.814.34l2.595.921c.915.296 1.724.848 2.333 1.585a6.54 6.54 0 0 1 .547.759l.028-.011.033-.017c.653-.296 1.351-.508 2.071-.636.279-.05.569-.073.854-.073a5.38 5.38 0 0 1 .898.078l2.121.34a5 5 0 0 1 1.752.586c.396.223.77.474 1.122.753.346-.279.72-.53 1.122-.753.541-.301 1.133-.502 1.752-.586l2.121-.34c.296-.056.597-.078.898-.078.285 0 .569.022.854.073.72.123 1.417.335 2.071.636l.033.017.028.011a7.04 7.04 0 0 1 .547-.759c.608-.742 1.423-1.295 2.333-1.585l2.595-.921c.58-.223 1.194-.34 1.814-.34.195 0 .391.011.58.033.352.039.703.106 1.049.184l.229.056c.173-.368.374-.72.614-1.06.268-.385.536-.681.714-.871l.022-.022c.156-.168.324-.324.508-.48.223-.195.469-.368.72-.519l.195-.117c.435-.257.904-.452 1.39-.569.38-.095.776-.162 1.183-.206a8.14 8.14 0 0 1 .899-.045h.095c.089-.474.229-.938.419-1.384.257-.614.631-1.166 1.105-1.635l.815-.859a5.02 5.02 0 0 1 1.674-1.239l.553-.229c-.134-.854-.045-1.73.262-2.545.151-.402.279-.815.385-1.228a4.99 4.99 0 0 1 1.122-2.126 5.02 5.02 0 0 1-1.122-2.126c-.095-.413-.223-.826-.374-1.228z" fill="#f80847"/><path d="M24.612 64.783h.095c.296 0 .597.017.887.045a8.59 8.59 0 0 1 1.194.206 4.96 4.96 0 0 1 1.39.569l.195.117c.257.151.497.324.72.519l.508.48.017.022a7.1 7.1 0 0 1 .714.871 7.17 7.17 0 0 1 .614 1.06l.206-.05a8.5 8.5 0 0 1 1.072-.19 5.14 5.14 0 0 1 .581-.034c.619 0 1.233.117 1.814.34l2.595.921c.915.296 1.724.848 2.333 1.585.201.24.385.497.547.759l.028-.011.034-.017a8.73 8.73 0 0 1 2.07-.636 4.85 4.85 0 0 1 .854-.073 5.38 5.38 0 0 1 .899.078l2.121.34c.614.084 1.211.285 1.752.586.396.223.77.474 1.122.753.346-.279.72-.53 1.122-.753.541-.301 1.133-.502 1.752-.586l2.121-.34c.296-.056.597-.078.898-.078.285 0 .569.022.854.073a8.25 8.25 0 0 1 2.071.636l.034.017.028.011a7.03 7.03 0 0 1 .547-.759 4.98 4.98 0 0 1 2.333-1.585l2.595-.921a5.05 5.05 0 0 1 1.814-.34c.195 0 .391.011.58.033.352.039.703.106 1.049.184l.229.056c.173-.368.374-.72.614-1.06.268-.385.536-.681.714-.871l.022-.022a5.98 5.98 0 0 1 .508-.48c.223-.195.469-.368.72-.519l.195-.117c.435-.257.904-.452 1.39-.569a8.87 8.87 0 0 1 1.183-.207 8.16 8.16 0 0 1 .898-.045h.095c.089-.474.229-.938.419-1.384l.056-.117-.056-.117c-.184-.446-.324-.91-.419-1.384h-.095c-.296 0-.592-.017-.882-.045-.424-.045-.826-.112-1.2-.207-.497-.123-.966-.312-1.401-.58l-.151-.089-.033-.022a4.72 4.72 0 0 1-.72-.519l-.508-.48-.022-.022c-.178-.19-.446-.48-.714-.871a7.17 7.17 0 0 1-.614-1.06l-.206.05a8.24 8.24 0 0 1-1.066.19c-.195.022-.391.033-.58.033-.619 0-1.233-.112-1.814-.34l-2.595-.921c-.91-.296-1.719-.843-2.327-1.579a8.04 8.04 0 0 1-.553-.765l-.028.011-.028.011c-.659.296-1.356.513-2.076.636-.279.05-.564.073-.848.073a5.38 5.38 0 0 1-.899-.078l-2.121-.34c-.614-.084-1.211-.285-1.752-.586-.396-.223-.77-.474-1.122-.753a7.87 7.87 0 0 1-1.122.754c-.541.301-1.138.502-1.752.586l-2.121.34c-.296.056-.597.078-.899.078-.285 0-.569-.022-.848-.072-.72-.123-1.418-.335-2.076-.636l-.028-.011h-.039c-.167.262-.352.519-.552.765-.608.737-1.418 1.289-2.327 1.579l-2.595.921a5.05 5.05 0 0 1-1.814.34c-.195 0-.391-.011-.58-.033-.352-.039-.703-.106-1.049-.184l-.229-.056c-.173.368-.374.72-.614 1.06-.268.385-.536.681-.714.871l-.017.022c-.156.167-.324.324-.508.48a4.71 4.71 0 0 1-.72.519l-.033.022-.151.078a5.13 5.13 0 0 1-1.401.581 8.89 8.89 0 0 1-1.183.206c-.307.034-.603.045-.899.045h-.095c-.089.474-.229.938-.419 1.384l-.056.117.056.117a7.05 7.05 0 0 1 .413 1.384z" fill="#bc023c"/></svg>