<svg xmlns="http://www.w3.org/2000/svg" width="100" height="101" fill="none" xmlns:v="https://vecta.io/nano"><g fill="#f60022"><path d="M18.03 33.987c-2.502 3.546 1.496 5.279 2.418 3.495s-2.111-8.392 1.678-13.257c0 0-1.081 2.791.648 4.319s4.762-2.078 3.355-4.655c-1.333-2.442 2.735-4.124.75-8.797-2.423 1.808-4.646 4.026-6.612 6.71l-3.089 4.664.294.075c.005-.005 3.061 3.9.559 7.446zm12.861-10.102c1.836 2.614 5.517 1.426 5.731-.741s-1.729-6.281-1.729-6.281 5.084 1.524 5.517 4.226 4.217 4.003 4.65 1.407-1.841-2.814-2.488-5.084 2.055-4.003 2.055-4.003-1.407 2.381.489 2.814 2.432-1.841 1.459-2.921c-.792-.881-2.013-2.908-1.449-4.799-5.48.513-10.684 1.948-15.302 4.636 1.617 3.886-.699 8.238 1.067 10.745zm56.903 24.794c-.867-4.65-.433-8.485-.433-8.485s-1.193 2.06-1.552 4.785c.606 1.57 1.072 3.336 1.146 4.45.065 1.006.023 2.092-.126 3.019.396 1.556.666 2.903.317 3.7-.76 1.729-1.622 1.3-2.274 0-.177-.359-.228-.876-.205-1.435l-.503.023c-.033.005-.061.005-.093.005h-.005c-.28-.009-.597-.205-.96-.638-.009.023-.023.047-.033.07 1.645 6.798 2.195 15.843 2.195 19.999a4.82 4.82 0 0 1-.219 1.435l.219.14s3.984-9.818 4.203-24.598c-.62.093-1.291-.387-1.677-2.47zM60.531 14.747c-.974 4.939 2.922 10.773 6.165 9.478s.974-2.498 0-5.68 1.682-3.798 1.682-3.798-1.575 3.099 1.183 4.72 0-2.605 0-2.605 3.513.657 2.758 4.226-2.479 5.927-.862 7.451 4.538-.536 3.784-3.56c-.527-2.102 1.347-4.389 2.539-5.592-4.124-4.655-9.147-7.623-14.678-9.305-.946.727-2.064 2.092-2.572 4.664z"/><path d="M78.382 24.719c.974 2.432 1.948-.494 1.948-.494s.76 1.3-.326 3.033-3.029 2.4-2.703 4.935 1.705 2.926 3.285 2.945 1.184-3.43 1.379-5.382c0 0 .979 3.895 1.673 3.35.527-.41-.023-4.049-.322-5.797-1.044-1.822-2.237-3.653-3.588-5.503 0-.009-2.32.48-1.347 2.912zM16.176 58.278l-.634-3.569-1.011-.047h-.047v-.005c-.657-.079-1.067-1.23-1.239-2.656l.009.252c.368 5.307-.405 8.513-1.873 9.776 1.235 8.564 3.346 13.83 3.346 13.83l.247-.158a4.84 4.84 0 0 1-.247-1.528c0-3.364.405-9.916 1.449-15.894zm34.579-42.529c-.391 3.718-2.684 5.149-2.111 7.181s7.022 1.305 6.696-1.295-2.274-5.307-.433-9.631c.582-1.375 1.575-2.404 2.651-3.173-2.46-.377-4.99-.55-7.558-.55l-3.774.135c.033.335.135.68.349.992 1.193 1.729 4.571 2.623 4.18 6.342z"/></g><path d="M13.254 52.248l-.009-.252c-.098-.82-.121-1.729-.065-2.572.168-2.535 2.358-8.434 3.621-7.726l1.193.023c.061-.009.121-.009.182.005h.009v.005c.238.061.443.336.606.862l.377-.583c2.964-4.301 15.484-15.638 30.879-15.638 3.509 0 6.854.554 9.962 1.458a45.36 45.36 0 0 1 2.139.662c.037.023.075.042.112.065 9.38 3.336 16.248 9.65 18.368 12.73a14.98 14.98 0 0 1 .75 1.212c.158-.471.354-.708.578-.769v-.005h.009a.47.47 0 0 1 .182-.005l1.193-.023c.704-.396 1.701 1.277 2.474 3.276.364-2.726 1.552-4.785 1.552-4.785s-.433 3.835.433 8.485c.387 2.083 1.058 2.563 1.677 2.46l.009-1.253c0-7.409-1.743-14.864-6.165-22.58.298 1.747.843 5.386.322 5.797-.694.545-1.673-3.35-1.673-3.35-.2 1.952.2 5.405-1.379 5.382s-2.963-.415-3.285-2.945 1.621-3.201 2.703-4.935.326-3.033.326-3.033-.974 2.926-1.948.494 1.347-2.917 1.347-2.917a33.45 33.45 0 0 0-1.943-2.409c-1.193 1.202-3.066 3.49-2.54 5.592.76 3.029-2.162 5.088-3.784 3.56s.103-3.881.862-7.451-2.758-4.226-2.758-4.226 2.758 4.226 0 2.605-1.184-4.72-1.184-4.72-2.656.61-1.682 3.798 3.248 4.389 0 5.68-7.139-4.538-6.165-9.478c.508-2.572 1.621-3.937 2.577-4.66-1.803-.55-3.658-.965-5.554-1.253-1.076.764-2.064 1.794-2.651 3.173-1.84 4.329.107 7.031.433 9.631s-6.123 3.327-6.696 1.295 1.719-3.462 2.111-7.18-2.987-4.613-4.18-6.342c-.214-.312-.317-.657-.349-.993l-1.1.089c-.564 1.892.657 3.919 1.449 4.799.974 1.081.433 3.355-1.458 2.922s-.489-2.814-.489-2.814-2.703 1.729-2.055 4.003 2.922 2.488 2.488 5.084-4.217 1.3-4.65-1.407-5.517-4.226-5.517-4.226 1.948 4.119 1.729 6.281-3.895 3.355-5.731.741c-1.766-2.507.55-6.864-1.067-10.75a30.63 30.63 0 0 0-2.945 1.952c1.98 4.674-2.083 6.356-.75 8.797 1.407 2.581-1.622 6.183-3.355 4.655s-.648-4.32-.648-4.32c-3.788 4.865-.759 11.472-1.677 13.257s-4.921.051-2.418-3.495-.555-7.451-.555-7.451l-.293-.075c-4.795 8.019-6.673 15.75-6.673 23.429a85.35 85.35 0 0 0 .867 12.138c1.468-1.263 2.241-4.469 1.873-9.776zm72.397 2.409l-.037.005-.946.047c-.023.559.028 1.076.205 1.435.648 1.3 1.514 1.729 2.274 0 .35-.797.079-2.143-.317-3.7-.2 1.211-.587 2.139-1.179 2.213zm-2.577-.494c.009-.023.023-.047.033-.07l-.07-.084.037.154zm-67.006.573c-.037 0-.065 0-.098-.005l-.429-.019.634 3.569.885-4.217c-.378.452-.704.662-.992.671z" fill="#c60000"/><g fill="#1c1b1b"><path d="M77.105 74.67c-3.541 1.37-7.614 1.398-11.267.168l-10.47-3.523c-3.457-1.165-7.288-1.165-10.745 0l-10.47 3.523c-3.667 1.235-7.763 1.202-11.314-.186.592 1.37.913 2.996.68 4.874l-.224 1.873c3.047.62 6.258.335 9.221-.811l11.551-4.469a16.41 16.41 0 0 1 11.854 0l11.551 4.469c2.95 1.142 6.146 1.426 9.184.815l-.224-1.878a9.27 9.27 0 0 1 .671-4.855zm7.949.927l-2.269-1.44-1.533-.974c-.088 1.156.084 3.709.317 6.332 1.636-.992 2.982-2.278 3.485-3.919z"/><path d="M18.715 73.305l-3.742 2.39c.522 1.584 1.831 2.833 3.415 3.802l.326-6.193zm64.359-19.142a6.97 6.97 0 0 0-.69 3.457c.144 2.689.308 11.164.401 16.537l2.269 1.44a4.81 4.81 0 0 0 .219-1.435c0-4.156-.555-13.201-2.199-19.999z"/><path d="M18.627 72.671c-.522-1.5-.718-2.083-.671-3.397l.075.042.238-4.552-1.337-.289-.755-6.193c-1.044 5.978-1.449 12.525-1.449 15.885a4.84 4.84 0 0 0 .247 1.528l3.742-2.39c-.014-.284-.042-.503-.088-.634z"/><path d="M83.074 54.163l-.037-.154-.196-.266c-.848-1.221-1.337-2.824-1.603-4.441-.778-1.328-1.556-1.827-1.556-1.827C74.608 44.783 59.73 41.284 50 41.284s-24.607 3.499-29.682 6.193c0 0-.662.424-1.379 1.533-.247 1.715-.75 3.439-1.645 4.734-.079.117-.158.219-.238.312a60.43 60.43 0 0 0-.885 4.217 120.77 120.77 0 0 1 .755 6.193l1.337.289c.531-6.225 2.041-14.589 5.452-16.164 4.492-2.074 17.669-4.771 26.28-4.771s21.788 2.693 26.28 4.771c4.361 2.013 5.62 15.167 5.685 20.698.023-.014.037-.023.037-.023.047 1.319-.149 1.897-.671 3.397-.037.107-.065.289-.079.508l1.533.974-.401-16.537a7.05 7.05 0 0 1 .694-3.443z"/></g><g fill="#000"><path d="M50 53.324L28.589 67l-7.553 4.827c.676.769 1.333 1.715 1.817 2.828 3.551 1.388 7.646 1.421 11.314.186l10.47-3.523c3.457-1.165 7.288-1.165 10.745 0l10.47 3.523c3.653 1.23 7.726 1.202 11.267-.168.498-1.16 1.188-2.134 1.892-2.922L50 53.324z"/><path d="M21.031 71.823l7.553-4.827-10.316-2.237-.238 4.552c.335.196 1.701 1.039 3.001 2.511z"/><path d="M50 53.324l28.997 18.424c1.342-1.5 2.735-2.32 2.968-2.456-.07-5.531-1.323-18.68-5.685-20.698-4.492-2.074-17.669-4.771-26.28-4.771s-21.788 2.693-26.28 4.771c-3.406 1.575-4.916 9.939-5.452 16.164l10.316 2.237L50 53.324z"/></g><path d="M76.206 42.822l-.098.014 4.618 1.892c.228.102.149.373-.028.466a3.31 3.31 0 0 1 .294.205l.149-1.845c.065-.438.145-.787.233-1.058l-.75-1.211c-2.12-3.08-8.988-9.389-18.368-12.73 6.929 3.844 10.656 8.97 13.951 14.268zm-57.066 2.45c.009-.005.009-.009.019-.014l1.43-.657a71.78 71.78 0 0 1 11.677-4.04 74.6 74.6 0 0 1 12.199-2.008 75.11 75.11 0 0 1 12.413.023 68.97 68.97 0 0 1 2.595.27c-1.123-4.711-3.197-8.816-6.221-12.306a38.66 38.66 0 0 1 6.752 1.295c-3.108-.904-6.449-1.458-9.962-1.458-15.395 0-27.916 11.332-30.879 15.638a15.17 15.17 0 0 0-.377.582 6.32 6.32 0 0 1 .205.965 14.28 14.28 0 0 1 .149 1.71z" fill="#1c1b1b"/><g fill="#6d6d6d"><path d="M62.148 28.489l-2.139-.662 2.251.722c-.042-.014-.075-.037-.112-.061z"/><path d="M59.478 38.842c3.234.387 6.44.979 9.594 1.789 2.386.61 4.734 1.351 7.041 2.204l.098-.014c-3.294-5.298-7.022-10.428-13.951-14.268-.736-.261-1.486-.503-2.251-.722-2.195-.615-4.455-1.067-6.752-1.295 3.024 3.495 5.093 7.595 6.221 12.306z"/></g><g fill="#000"><path d="M19.004 48.567l.028-.052-.024.028c-.005.005-.005.014-.005.024zm48.367-6.557l-1.528-.186-15.796-1.906-17.324 2.092-11.043 3.43-.433.508c4.958-2.633 19.258-4.697 28.759-4.697s23.96 2.064 28.918 4.697l-.499-.508-11.053-3.43zm13.545 5.956l-.275-.279a11.12 11.12 0 0 1 .489.853l-.042-.401-.172-.172z"/><path d="M80.642 47.691l-1.724-1.743C73.96 43.316 59.501 41.251 50 41.251s-23.801 2.064-28.759 4.697l-2.209 2.568a.47.47 0 0 1-.028.051l-.061.447c.713-1.109 1.379-1.533 1.379-1.533 5.074-2.693 19.953-6.193 29.682-6.193s24.607 3.499 29.682 6.193c0 0 .778.499 1.556 1.827a14.76 14.76 0 0 1-.107-.76 11.94 11.94 0 0 0-.494-.857zm-47.924-5.68l17.325-2.092 15.796 1.906-5.899-2.376-4.692-.447a75.07 75.07 0 0 0-12.236.228 73.21 73.21 0 0 0-12.068 2.246A70.81 70.81 0 0 0 19.43 45.73c-.107.051-.205.028-.284-.028A21.69 21.69 0 0 1 19 48.539l.023-.028c.648-1.221 1.379-2.129 2.209-2.567l.433-.508 11.053-3.425z"/><path d="M80.455 45.202l-1.389-.61-4.128-1.603-3.113.401-4.45-1.384 11.043 3.429.499.508c.629.336 1.202.937 1.724 1.743l.275.28.172.172a21.56 21.56 0 0 1-.093-2.745l-.294-.205c-.075.042-.158.056-.247.014z"/><path d="M78.917 45.944l1.724 1.743c-.522-.802-1.095-1.407-1.724-1.743zm-59.885 2.571l2.209-2.567c-.829.438-1.561 1.342-2.209 2.567zm46.811-6.69l1.528.186-1.528-.186z"/><path d="M59.939 39.448l5.899 2.376 1.533.186 4.45 1.384 3.113-.401c-2.47-.871-4.99-1.608-7.539-2.199-2.46-.582-4.948-1.03-7.455-1.347z"/></g><g fill="#6d6d6d"><path d="M19.242 45.636c5.536-2.94 19.519-6.994 30.129-6.994H50h.629c2.847 0 5.922.256 9.002.685l-.042-.019-.116-.466-2.595-.27a75.11 75.11 0 0 0-12.413-.023 74.94 74.94 0 0 0-12.199 2.008 71.34 71.34 0 0 0-11.677 4.04l-1.43.657c-.009.005-.009.009-.019.014l.014.424c.056-.037.089-.056.089-.056zm61.335-.512l.126.07c.177-.093.256-.359.028-.466l-4.618-1.892-.834.107c2.139.722 3.961 1.468 5.298 2.181z"/><path d="M59.636 39.327c5.638.788 11.295 2.153 15.642 3.621l.834-.107c-2.306-.853-4.655-1.594-7.041-2.204-3.155-.811-6.36-1.403-9.594-1.789.037.154.084.308.116.466l.042.014z"/><path d="M19.433 45.734c3.704-1.752 7.563-3.173 11.514-4.254a73.22 73.22 0 0 1 12.068-2.246 75.04 75.04 0 0 1 12.236-.228c1.57.098 3.131.247 4.692.447l-.307-.121c-3.085-.438-6.16-.694-9.002-.694h-.629-.629c-10.61 0-24.594 4.054-30.129 6.994l-.088.065v.005a.25.25 0 0 0 .275.033zm55.841-2.791l-.34.042 4.128 1.603 1.389.611a.27.27 0 0 0 .247-.009l-.126-.07c-1.333-.708-3.154-1.454-5.298-2.176z"/><path d="M67.394 40.785a71.92 71.92 0 0 1 7.539 2.199l.34-.042c-4.343-1.468-10.004-2.833-15.642-3.62l.307.121c2.507.322 4.995.769 7.455 1.342z"/></g><g fill="#1c1b1b"><path d="M14.484 54.657h.033c-.01.005-.019 0-.033 0z"/><path d="M15.426 54.154c-.335.363-.634.517-.895.508l1.011.047c-.005-.028-.009-.056-.019-.079l-.098-.475zm2.078-10.675a15.71 15.71 0 0 1 .126 1.361 16.11 16.11 0 0 1 1.156-2.251c-.163-.531-.373-.801-.606-.862v-.005h-.009a.47.47 0 0 0-.182-.005l-1.193-.023c.308.172.555.718.708 1.785z"/><path d="M16.064 54.737c.289-.009.62-.214.997-.676l.233-.895c-.144-.117-.377-.382-.736-.876-.214.494-.457.965-.75 1.384-.13.191-.261.349-.382.48l.098.475a.39.39 0 0 0 .019.079l.429.019c.033.009.061.009.093.009z"/><path d="M17.294 53.166l-.233.895a3.9 3.9 0 0 0 .238-.312c.899-1.295 1.398-3.019 1.645-4.734-.545.843-1.118 2.087-1.454 3.844 0-.005.168.601-.196.307zm.312-5.643c.657-1.086 1.305-1.64 1.538-1.822-.144-.103-.191-.326-.009-.429l-.145-1.719a6.45 6.45 0 0 0-.205-.965 15.69 15.69 0 0 0-1.156 2.251 20.85 20.85 0 0 1-.023 2.684z"/><path d="M19.009 48.544l-.131.154-1.71 1.743a11.78 11.78 0 0 1-.61 1.85c.359.498.592.76.736.876.485-1.771 1.053-3.346 1.71-4.599 0-.009 0-.019.005-.023z"/><path d="M17.294 53.166c.364.294.196-.308.196-.308.336-1.757.909-2.996 1.454-3.844l.061-.447c-.657 1.249-1.226 2.824-1.71 4.599z"/><path d="M18.879 48.692l.13-.154c.116-.988.159-1.962.145-2.838-.242.172-.885.727-1.542 1.817-.07.955-.205 1.952-.438 2.912l1.705-1.738z"/><path d="M19.139 45.272c-.182.107-.135.326.009.429l-.009-.429z"/><path d="M19.154 45.701z"/></g><g fill="#000"><path d="M14.796 52.513c-.149-.923-.191-2.008-.126-3.01.028-.41.107-.913.228-1.459.126-1.575.503-3.117 1.253-4.65 0 0-3.234 2.521-2.908 8.606.172 1.426.578 2.577 1.239 2.656l-.298-1.757.611-.387z"/><path d="M16.152 43.39c-.75 1.528-1.128 3.071-1.253 4.65.196-.89.503-1.901.862-2.852l-.098.089.937-3.579.196.005c-1.258-.708-3.453 5.191-3.62 7.726-.056.848-.033 1.757.065 2.572-.322-6.09 2.912-8.611 2.912-8.611z"/><path d="M15.426 54.154c-.433-2.12-.68-4.142-.527-6.114-.121.545-.2 1.049-.228 1.459-.065 1.002-.023 2.087.126 3.01l-.61.387.298 1.757c.014 0 .023.005.037.005h.014c.261.014.554-.14.89-.503z"/><path d="M15.668 45.273l.098-.089a21.36 21.36 0 0 0-.862 2.852c-.154 1.971.093 3.993.527 6.113.121-.13.247-.289.382-.48.294-.419.536-.89.75-1.384l-.405-.578v-.205c.005-.014.005-.028.009-.042l-.009.009s.033-3.183 1.482-6.631l-.126-1.361c-.154-1.067-.401-1.612-.704-1.78l-.196-.005-.946 3.579z"/><path d="M17.635 44.839c-1.449 3.448-1.482 6.631-1.482 6.631l.009-.009c.34-1.752.895-3.029 1.445-3.937.07-.965.07-1.887.028-2.684z"/><path d="M16.162 51.46c-.005.014-.005.028-.009.042v.205l.405.578c.252-.582.452-1.207.61-1.85l-1.007 1.025z"/><path d="M17.607 47.523c-.55.909-1.104 2.181-1.445 3.937l1.007-1.025c.233-.96.368-1.957.438-2.912z"/></g><g fill="#1c1b1b"><path d="M84.327 53.669c-.172-.247-.322-.513-.466-.787a7.79 7.79 0 0 0-.755 1.216c.363.433.68.629.96.638h.005c.033 0 .061 0 .093-.005l.503-.023.042-.554c-.121-.135-.247-.294-.382-.485zm-1.696-10.19c.154-1.067.401-1.612.704-1.78l-1.193.023c-.061-.009-.121-.009-.182.005h-.009v.005c-.224.056-.419.298-.578.769a16.51 16.51 0 0 1 1.118 2.479l.14-1.5z"/><path d="M83.409 51.88c-.224.471-.517.736-.708.862l.331 1.267.07.084a7.79 7.79 0 0 1 .755-1.216 9.76 9.76 0 0 1-.447-.997zm2.243 2.777c-.014 0-.024.005-.039.005l.039-.005z"/><path d="M84.71 54.154l-.042.555.932-.047c-.256.009-.555-.144-.89-.508zm-2.2-1.3c-.298-1.566-.787-2.717-1.272-3.551.261 1.617.755 3.22 1.603 4.441l.196.266-.331-1.267c-.117.079-.196.112-.196.112z"/><path d="M80.996 45.398c.382.294.965.862 1.519 1.845l-.019-2.269a17 17 0 0 0-1.118-2.479 5.75 5.75 0 0 0-.233 1.058c-.075.503-.13 1.137-.149 1.845zm.093 2.745l.042.401c.601 1.156 1.123 2.591 1.575 4.203.191-.13.485-.391.708-.862-.233-.615-.41-1.267-.55-1.934l-1.775-1.808z"/><path d="M82.706 52.747c-.452-1.612-.974-3.047-1.575-4.203l.107.76c.489.83.974 1.985 1.272 3.551 0 0 .079-.033.196-.107zm-1.617-4.604l1.775 1.808c-.186-.904-.298-1.827-.349-2.707-.555-.983-1.137-1.552-1.519-1.845a20.7 20.7 0 0 0 .093 2.744z"/></g><g fill="#000"><path d="M86.829 52.444c.149-.923.191-2.013.126-3.019-.075-1.114-.541-2.88-1.146-4.45a11.41 11.41 0 0 0-.107 1.617c.023 1.887.662 4.017 1.128 5.853z"/><path d="M84.472 45.272l-.098-.089c.578 1.533 1.02 3.229 1.09 4.315.065 1.002.023 2.088-.126 3.01l.61.387-.298 1.757c.587-.075.978-.997 1.174-2.213-.466-1.836-1.104-3.961-1.123-5.848a11.35 11.35 0 0 1 .107-1.617c-.773-1.999-1.771-3.672-2.474-3.276l.196-.005.941 3.579z"/><path d="M84.71 54.154c.144-1.323.564-2.684.564-2.684s-.699.48-1.412 1.412a7.31 7.31 0 0 0 .466.788c.135.191.261.349.382.485z"/><path d="M82.631 43.479c-.061.419-.107.927-.135 1.496.848 2.353 1.067 4.455 1.123 5.335l.07.322v.205a3.25 3.25 0 0 1-.279 1.053 8.86 8.86 0 0 0 .452 1.002c.713-.932 1.412-1.412 1.412-1.412s-.419 1.356-.564 2.684c.336.364.634.517.895.508h.014c.014 0 .023-.005.037-.005l.298-1.757-.61-.387c.149-.923.191-2.008.126-3.01-.07-1.081-.513-2.777-1.09-4.315l.098.089-.937-3.579-.196.005c-.312.154-.559.699-.713 1.766z"/><path d="M82.496 44.974c-.033.685-.033 1.458.019 2.269.424.755.829 1.752 1.109 3.061a20.35 20.35 0 0 0-1.128-5.331z"/><path d="M82.859 49.951c.14.666.317 1.319.55 1.934.13-.275.233-.62.279-1.053v-.205l-.07-.322.019.438-.778-.792z"/><path d="M83.638 50.743l-.019-.438c-.28-1.309-.685-2.311-1.109-3.061a18.98 18.98 0 0 0 .35 2.707l.778.792z"/></g><g fill="#c60000"><path d="M18.394 79.493l-.755 7.25c.312.005.629.112.899.349l3.923 3.364.839-9.054c-1.575-.322-3.108-.876-4.534-1.687l-.373-.224z"/><path d="M22.849 74.656l-1.155-.503c-.802-.396-1.533-.857-2.134-1.384l-.843.536c.07 1.207-.098 3.662-.322 6.188l.377.224c1.426.811 2.959 1.37 4.534 1.687l.224-1.873c.233-1.882-.093-3.509-.68-4.874z"/><path d="M18.03 69.773l.005-.457-.075-.042c-.047 1.319.149 1.897.671 3.397.047.13.075.35.088.629l.843-.536c-.932-.82-1.533-1.803-1.533-2.992z"/><path d="M19.559 72.764c.601.531 1.333.988 2.134 1.384l1.156.503c-.48-1.114-1.137-2.059-1.817-2.828l-1.472.941z"/><path d="M18.035 69.316l-.005.457c0 1.188.601 2.171 1.528 2.992l1.472-.941c-1.3-1.472-2.665-2.316-2.996-2.507z"/></g><g fill="#6d6d6d"><path d="M17.579 87.237l.056-.494c-.75-.014-1.473.568-1.473 1.435v5.172c0 .447.205.867.559 1.137l3.634 2.8a1.44 1.44 0 0 0 2.293-.89l.746-4.222c.088-.503-.093-1.011-.48-1.342l-.447-.382-.177 2.572-4.711-5.787z"/><path d="M17.639 86.748l-.056.494 4.706 5.792.177-2.572-3.923-3.364a1.4 1.4 0 0 0-.904-.349z"/></g><g fill="#c60000"><path d="M76.658 81.408l.839 9.049 3.923-3.364c.275-.238.592-.345.899-.349l-.755-7.232-.34.2c-1.435.82-2.978 1.379-4.566 1.696z"/><path d="M81.252 73.184l-.75-.475c-.61.554-1.37 1.034-2.199 1.444-.391.196-.792.364-1.197.522-.587 1.365-.909 2.982-.671 4.86l.224 1.878c1.589-.317 3.131-.876 4.571-1.696l.34-.2-.317-6.333z"/><path d="M82.002 69.274l-.037.023.005.475c0 1.156-.573 2.125-1.463 2.931l.75.475c.019-.224.042-.401.079-.508.522-1.5.713-2.078.666-3.397z"/><path d="M77.105 74.67l1.198-.522c.829-.41 1.589-.89 2.199-1.444l-1.505-.955c-.704.787-1.393 1.761-1.892 2.922z"/><path d="M81.97 69.773l-.005-.475c-.233.13-1.626.955-2.968 2.456l1.505.955c.895-.811 1.468-1.775 1.468-2.936z"/></g><g fill="#6d6d6d"><path d="M77.674 93.029l-.177-2.572-.447.382c-.387.331-.569.839-.48 1.342l.745 4.222a1.44 1.44 0 0 0 2.293.89l3.635-2.8c.354-.27.559-.69.559-1.137v-5.172c0-.867-.722-1.449-1.472-1.435l.056.494-4.711 5.787z"/><path d="M77.501 90.457l.177 2.572 4.706-5.792-.056-.494a1.38 1.38 0 0 0-.899.349l-3.928 3.364z"/></g></svg>