<svg xmlns="http://www.w3.org/2000/svg" width="101" height="101" fill="none" xmlns:v="https://vecta.io/nano"><path d="M50.139 28.653l.414-.005c2.16 0 4.276.146 6.339.413 2.661.346 5.24.9 7.706 1.605l-1.372-4.432c-1.129-4.457-6.943-10.183-13.759-10.183s-12.63 5.726-13.764 10.188c-.258 1.027-.856 2.904-1.62 5.186 3.075-1.036 6.334-1.844 9.735-2.311 2.058-.282 4.165-.443 6.32-.462z" fill="#ffb800"/><path d="M50.27 32.428h.438l6.675.311c2.885.268 5.668.696 8.339 1.245l-.477-1.406c-2.705-.749-5.546-1.328-8.495-1.674a53.43 53.43 0 0 0-6.237-.37h-.409c-2.121.015-4.194.161-6.218.414-3.663.457-7.152 1.27-10.421 2.321l-.453 1.319a75.86 75.86 0 0 1 10.606-1.815c2.16-.209 4.384-.331 6.651-.346z" fill="#ffe26f"/><path d="M50.1 30.541h.409c2.126 0 4.204.131 6.237.37a56.45 56.45 0 0 1 8.495 1.674l-.642-1.907c-2.471-.71-5.045-1.26-7.706-1.605a49.26 49.26 0 0 0-6.339-.414l-.413.005a49.77 49.77 0 0 0-6.32.462c-3.406.472-6.665 1.275-9.735 2.311l-.623 1.844c3.27-1.051 6.763-1.863 10.421-2.321 2.024-.258 4.097-.399 6.218-.418z" fill="#f80847"/><path d="M43.615 36.442l6.656-.346h.438l6.675.311a75.63 75.63 0 0 1 9.716 1.542l-1.377-3.965c-2.666-.55-5.454-.978-8.339-1.245l-6.675-.311h-.438l-6.656.345c-3.717.365-7.269.997-10.606 1.815l-1.401 4.024.594-.156c3.571-.915 7.395-1.62 11.414-2.014z" fill="#ff8d1a"/><path d="M67.094 37.945c-3.08-.696-6.33-1.231-9.716-1.542l-6.675-.311h-.438l-6.656.346c-4.019.394-7.843 1.099-11.414 2.014-.199.049-.394.102-.593.156l-4.568 12.757 22.429-3.23 22.429 3.23c.005.01-2.472-6.782-4.797-13.418z" fill="#ffe26f"/><g fill="#ff8d1a"><path d="M26.017 41.964l-4.783 1.839-1.708 3.897-4.773-.749-4.797 2.982 11.229.798 4.831-8.767zm48.506-.005l4.831 8.772 11.229-.798 1.45 10.519 5.016-3.839-.102-.997c-.073-.506-.472-1.187-1.177-1.99l-2.238 2.311-.555-4.87c-1.416-1.109-3.177-2.301-5.245-3.503l-6.587.141-1.338-4.053c-3.153-1.319-6.656-2.525-10.446-3.503l-7.56 1.304-4.422-3.396c-2.175-.2-4.398-.311-6.675-.311h-.438l10.494 6.573 13.764-2.36z"/><path d="M50.27 37.741l-6.656.346-5.585 3.736-5.833-1.722-6.184 1.859 12.723 2.807c.005.005 11.535-7.025 11.535-7.025z"/></g><path d="M97.049 56.608l-5.016 3.839-1.45-10.519-11.229.798-4.831-8.772-13.759 2.35-10.494-6.563-11.531 7.025-12.722-2.807-4.831 8.772-11.229-.798-1.45 10.514-4.169-3.45c-.049 1.017-.029 2.228.088 3.586l5.731 4.418 1.766-11.852 10.689.9 5.05-8.679 11.647 2.102 10.927-6.767 10.202 6.767 12.47-2.486 4.087 9.181 11.672-1.319 1.654 12.149 6.709-5.167c.092-1.221.088-2.306.019-3.221z" fill="#ffb800"/><path d="M88.681 52.852L77.01 54.171l-4.087-9.181-12.47 2.486-10.207-6.767-10.927 6.767-11.647-2.102-5.05 8.679-10.689-.9-1.766 11.852-5.736-4.423c.394 4.427 1.854 10.441 5.43 16.6 3.036 5.235 10.441-5.624 10.441-5.624l30.408 4.369 30.408-4.369s7.41 10.854 10.441 5.624c3.78-6.514 5.196-12.864 5.483-17.349l-6.709 5.167-1.649-12.148z" fill="#ffe26f"/><path d="M9.957 49.933l-2.16 1.64-.423 4.919-2.17-2.335c-.433.569-.686 1.066-.74 1.455-.058.409-.102.876-.127 1.387l4.169 3.449 1.45-10.514z" fill="#ff8d1a"/><path d="M7.802 51.573c-1.153.954-2.029 1.834-2.598 2.579l2.17 2.335.428-4.914zm13.433-7.77c-2.374 1.007-4.544 2.077-6.48 3.148l4.773.749 1.708-3.897zm22.38-5.717A75.85 75.85 0 0 0 32.201 40.1l5.833 1.722 5.58-3.736zm25.746 2.053a76.05 76.05 0 0 0-11.983-2.092l4.422 3.396 7.561-1.304zm18.371 7.42c-2.287-1.328-4.948-2.671-7.925-3.912l1.338 4.053 6.587-.141zm8.038 6.062c-.666-.759-1.606-1.63-2.793-2.559l.555 4.87 2.238-2.311z" fill="#f80847"/><path d="M79.578 57.1l-.569-.399-.574-.394-.579-.384-.584-.375-.589-.365-.594-.355-.598-.345-.603-.336-.608-.331-.613-.321-.618-.311-.618-.302-.623-.292-.628-.282-.628-.273-.633-.268-.637-.258-.637-.248-.637-.238-.642-.229-.642-.224-.647-.214-.647-.204-.647-.195-.647-.185-.647-.175-.647-.17-.647-.161-.647-.151-.647-.141-.647-.131-.647-.127-.647-.117-.647-.107-.642-.097-.642-.087-.642-.083-.637-.073-.637-.063-.633-.053-.632-.049-.628-.039-.628-.029-.623-.019-.618-.01-.739-.005-.618.005-.623.014-.623.024-.628.034-.633.044-.632.049-.637.058-.637.068-.642.078-.642.083-.642.093-.647.102-.647.112-.647.122-.647.127-.647.136-.647.146-.647.156-.647.165-.647.17-.647.18-.647.19-.647.199-.647.209-.642.214-.642.224-.642.234-.637.243-.637.253-.633.263-.632.268-.628.277-.623.287-.623.297-.618.306-.613.316-.608.321-.608.331-.603.341-.599.35-.593.36-.589.37-.584.38-.574.384-.569.394-.321.229C13.368 63.303 8.969 68.8 9.169 73.904s4.52 9.302 21.066 9.302h20.556 20.555c16.547 0 20.867-4.204 21.066-9.302S88.214 63.303 79.578 57.1z" fill="#ffb800"/><path d="M69.746 63.804c-1.756.997-4.233 1.659-7.663 1.659H50.791 39.499c-3.43 0-5.906-.657-7.663-1.659-2.661 2.301-3.994 3.853-3.912 6.325.112 3.303 2.481 7.921 11.574 7.921h11.292 11.292c9.088 0 11.462-4.622 11.574-7.921.083-2.472-1.25-4.023-3.912-6.325z" fill="#ff8d1a"/><path d="M50.791 65.463h11.292c3.43 0 5.906-.657 7.663-1.659l-3.138-2.651-.311-.258a7.94 7.94 0 0 0-.316-.253l-.316-.248-.321-.243-.326-.233s-.219-.156-.326-.229a7.91 7.91 0 0 0-.331-.224l-.331-.219-.336-.214-.336-.209-.341-.199s-.229-.131-.341-.195l-.341-.19-.345-.185-.345-.18-.345-.17-.35-.165-.35-.16-.35-.156-.35-.151a7.65 7.65 0 0 0-.355-.141l-.355-.136-.355-.131-.355-.127-.355-.122-.355-.117-.355-.107-.355-.102-.355-.097-.355-.092-.355-.088-.355-.083-.355-.073-.355-.068s-.234-.044-.355-.063l-.355-.058-.35-.054-.35-.049-.35-.039-.35-.034-.346-.029-.345-.024s-.229-.015-.345-.02l-.341-.015-.341-.01c-.136 0-.272-.005-.409 0l-.341.005a7.9 7.9 0 0 0-.341.01l-.34.015-.345.019-.346.029-.345.034-.35.039-.35.044-.35.049-.35.054-.355.058a8.88 8.88 0 0 0-.355.068l-.355.073-.355.078-.355.083-.355.088-.355.092-.355.102-.355.107a10.1 10.1 0 0 0-.355.112l-.355.117-.355.122-.355.127-.355.136-.355.141-.355.146-.35.151-.35.156-.35.16a11.6 11.6 0 0 0-.35.17l-.345.175-.345.18-.345.185-.341.19-.341.2-.336.204-.336.209-.331.214-.331.219-.326.229-.326.233-.321.238-.321.243-.316.248-.311.258-.175.151-3.138 2.651c1.756.997 4.233 1.659 7.663 1.659h11.268z" fill="#f80847"/></svg>